<svg width="460" height="689" viewBox="0 0 460 689" fill="none" xmlns="http://www.w3.org/2000/svg">
<path fill-rule="evenodd" clip-rule="evenodd" d="M141.412 511.222L141.192 511.846L139.269 511.634L139.109 512.841L138.388 512.811L138.418 513.957L137.537 514.229L135.244 513.746L135.514 513.032L135.234 512.198H134.843L134.062 512.288L134.102 512.761L131.759 514.199H128.275L124.881 516.22L123.829 514.953L122.628 514.732L123.779 515.053L124.5 515.918L124.11 516.28L123.759 515.878L124.07 516.3L122.958 516.854L122.147 515.938L122.297 515.255L122.047 515.918L122.217 516.16L120.825 517.326L121.466 518.111L120.164 519.559L113.916 523.139L110.843 523.551L110.031 521.158L105.015 521.771L104.835 521.379L104.254 521.871L101.26 521.017L101.07 522.505L99.1475 521.62L95.5529 524.225L94.3513 526.186L94.7018 528.006L95.3125 528.217L94.852 528.8L93.1397 526.266L89.0145 529.645H88.5839L88.3536 527.312L85.6201 527.694L85.0093 528.529L84.5087 528.458L84.5587 527.885L78.541 527.583L78.9515 525.854L78.9115 522.978L77.4396 523.219L76.3782 519.911L76.8388 517.94L77.3595 518.07L78.0904 515.436L77.2694 514.923L77.3595 514.541L81.4647 515.144L74.8863 513.384L74.2054 514.943L72.7435 514.45L67.7071 515.214L66.2752 518.171L63.1712 521.409L62.6706 520.946L63.0711 521.54L62.4503 522.264L61.8695 521.892L62.4403 521.097L59.0259 524.094L59.086 526.618L59.5065 527.533L59.0459 530.731L58.315 532.109L58.1147 534.19L56.4926 536.805L55.8518 537.006L56.2924 537.318L55.7817 539.188L54.0695 539.279L55.231 537.66L55.261 537.147L53.9894 539.148L54.0195 539.389L54.6202 539.631L54.2197 540.717L54.8705 540.978L54.3699 540.827L53.7091 542.155L54.1897 543.321L51.6564 545.865L50.1144 548.007L50.0243 548.943L47.8215 550.3L47.8715 551.054L44.7375 558.013L42.745 559.994L41.2731 563.222L40.462 563.443L40.6623 564.097L39.9113 565.103L39.4507 566.822L38.91 567.164L38.7799 568.15L39.1303 567.094L39.9614 567.526L40.3519 569.739L39.9914 571.458L39.1403 572.836L38.0189 572.866L38.2091 571.287L37.6184 574.696L37.9588 573.168L38.6197 573.731L38.9701 575.068L38.3793 576.818L36.7573 578.618L35.1252 578.729L35.8461 577.773L34.965 578.729L35.5157 580.489L31.9811 580.961L35.5557 580.559L36.0063 581.977L32.9724 582.832L32.4317 581.494L33.0225 583.344L31.6307 585.104L30.9999 586.754L30.8296 589.016L28.9973 592.194L28.7169 600.239L26.6443 604.925L26.8245 606.463L27.996 608.193L28.5167 610.727L30.1688 614.74L34.1839 619.235L39.4808 621.93L40.1116 623.197L40.0515 622.241L43.526 624.937L46.0792 624.977L47.7013 625.661L50.7753 628.496L51.9167 627.4L57.9345 626.545L58.365 626.314L57.3838 626.576L57.2236 625.681L58.8557 624.937L63.8621 624.343L66.9361 626.877L67.1163 627.782L67.9674 627.571L68.6182 628.315L69.3892 628.195L69.8999 627.35L69.3091 626.455L69.5995 625.429L70.4606 624.042L72.2729 623.136L72.1628 622.583L73.1841 621.397L73.4144 622.111L77.5697 621.9L77.6298 620.069L79.0416 620.23L78.9715 621.528L79.7525 622.543L79.0717 621.457L79.1418 620.301L80.5936 620.391L80.6837 621.568L80.2231 622.081L81.7651 620.592L83.247 620.824L84.5187 620.27L85.58 619.205L85.6701 618.45L85.0193 617.012L85.59 615.313L87.5826 614.549L88.0332 616.218L87.8129 614.82L88.4838 614.891L88.654 613.654L91.6078 612.708L91.4876 611.381L94.1511 611.954L94.5516 612.779L96.5041 611.783L97.0648 612.879L98.3164 613.684L98.9472 613.422L98.3264 613.623L96.7644 612.145L99.3778 610.516L99.8484 611.15L100.83 610.898L101.551 609.45L101.45 608.957L100.94 609.008L100.79 607.147L101.721 607.791L101.951 609.098L102.031 608.465L103.353 607.228L104.875 602.582L104.284 598.972L108.479 596.81L107.058 594.557L108.149 594.346L108.399 595.16L111.794 593.702L112.074 594.416L111.854 593.672L112.745 593.109L113.316 594.014L115.028 593.28L117.331 593.38L119.464 588.584L123.619 586.844L128.555 586.301L131.829 587.126L136.095 584.943L136.185 585.667L137.677 585.255L137.967 585.768L137.857 585.346L138.518 584.964L138.538 583.847L139.189 583.747H137.587L137.637 583.113L140.29 579.825L141.912 579.282L143.845 579.624L145.477 579.322L145.717 579.734L147.67 578.518L147.249 578.739L146.949 578.306L149.582 576.436L151.355 575.913L151.985 576.748L154.849 576.014L155.009 575.32L155.21 575.993L155.67 575.682L155.139 575.249L155.5 573.862L157.002 572.987L157.372 573.369L157.072 572.926L158.804 571.539L160.617 571.197L160.486 568.924L161.518 567.104L160.166 566.33L160.216 564.902L160.797 564.459L161.357 564.701V565.254L162.379 564.147L161.778 562.86L161.107 562.82L161.438 561L162.299 560.346V558.315L163.19 556.907L163.57 557.108L163.931 554.946L165.032 553.035L166.244 552.171L166.814 550.672L166.634 549.797L166.744 550.652L165.703 551.024L165.423 549.968L165.303 549.093L165.583 549.053L165.283 549.013L165.803 548.792L165.713 548.058L165.092 547.796L165.353 545.926L164.842 545.755L165.513 544.146L164.652 541.531L164.992 541.179L164.081 539.962L163.52 539.983L162.148 537.378L159.785 529.786L158.884 528.468L159.645 527.764L158.284 525.482L156.701 525.371L156.361 521.017L155.24 519.227L154.118 518.442L153.317 516.15L150.223 514.329L149.152 514.812L146.128 514.37L145.137 514.993L144.346 513.998L142.483 514.098L142.613 512.006L141.712 511.896L141.812 511.192H141.352L141.412 511.222ZM175.976 429.496L180.702 428.571L180.632 428.169L172.782 429.687L170.88 430.17L170.669 430.783L169.167 430.562L167.756 432.211L168.006 433.086L169.618 433.287L170.009 435.449L171.811 435.117L172.011 436.425L170.74 436.666L171.46 441.372L170.559 441.443L170.409 442.026L170.629 443.575L171.2 443.756L170.719 443.736L169.328 447.838L167.966 447.476L166.594 451.348L166.614 452.253L167.786 452.977L167.415 453.4H165.963L166.664 453.44L167.095 456.054L166.384 456.215L164.632 450.725L161.478 451.358L157.933 453.017L157.322 452.716L157.122 450.765L156.031 450.634L155.47 449.99L154.859 450.755L153.197 451.016L152.256 452.665L151.505 453.007L151.024 455.592L151.645 458.015L149.712 459.624L149.382 460.298L151.615 458.146L154.048 458.92L155.92 460.65L155.71 461.213L157.482 464.129L157.533 465.105L157.212 465.547L156.561 464.471L155.59 464.16L155.27 462.953L154.969 463.707L153.447 464.874L154.889 466.301L154.449 465.98L153.257 466.472L152.236 467.347L152.266 467.8L150.934 467.136L149.222 467.227L148.761 467.82L149.142 469.067L148.831 471.159L145.087 474.004L144.606 475.553L144.876 476.086L144.296 476.418L144.095 478.841L144.906 482.381L144.446 482.643L145.056 483.135L144.486 487.389L149.572 492.216L153.567 492.065L155.39 493.252L156.942 497.495L157.733 497.184L158.093 501.87L159.145 502.493L158.664 502.956L160.456 503.982L161.357 505.088L161.568 506.043L161.077 506.244L162.209 509.362L162.749 509.633L164.281 512.821L163.931 513.203L164.471 514.299L166.314 516.632L166.144 516.854L166.104 517.045L166.324 517.507V516.662L166.935 517.165L167.866 517.055L167.906 517.457L166.484 518.09L166.875 518.241L167.385 521.52L167.025 522.274L170.259 525.934L169.959 526.015L171.25 529.605L170.92 532.129L171.36 534.14L170.88 535.387L172.211 536.604L172.342 537.861L173.523 539.55L174.174 541.612L175.636 542.678L175.406 543.452L176.667 548.158L176.417 548.681L177.608 549.224L177.188 549.928L176.377 549.274L176.727 549.687L177.188 550.008L177.638 549.345L177.418 550.039L179.491 550.632L181.834 552.281L180.572 551.024L181.173 549.928L184.147 551.577L183.836 552.452L182.435 552.362L184.758 552.623L186.35 552.1L186.92 552.784L186.53 553.126L187.091 552.854L187.471 553.8L186.239 554.413L186.32 554.604L187.581 553.85L188.352 554.554L187.411 555.187L188.442 554.664L188.763 555.61L188.492 556.032L193.118 556.917L193.469 557.581L194.951 557.832L196.633 559.28L195.411 557.973L196.423 557.671L197.354 555.871L196.993 558.315L197.524 558.858L202.31 562.669L199.777 559.874L200.067 559.592L202.59 561.915L205.995 563.846L205.484 564.389L204.423 563.936L206.325 565.445L206.235 566.36L206.656 568.109L206.375 566.5L207.367 566.782L208.017 570.372L207.617 570.442L206.826 568.904L207.176 570.553L208.318 570.855L209.199 575.37L208.899 575.561L210.3 578.176L210.16 578.628L210.861 579.01L212.113 581.524L211.422 581.665L211.662 582.118L212.153 581.635L212.343 581.987L212.023 582.138L212.834 583.817L212.163 582.158L213.044 582.741L214.786 585.557L213.885 585.034L215.297 586.311L214.626 586.391L214.806 586.864L215.387 586.472L215.527 587.729L218.07 588.926L218.191 589.609L221.034 591.198L222.045 592.053L222.316 592.988L225.89 595.382L227.242 595.573L227.052 596.498L229.385 596.96L231.508 598.107L232.479 597.825L232.929 600.118L240.519 599.535L241.931 598.64L245.636 593.803L244.574 593.008L245.125 592.184L246.447 591.852L246.597 592.697L246.637 592.134L242.642 585.708L241.961 578.447L242.512 577.753L246.767 575.883L247.228 576.315L246.937 575.259L247.588 575.028L248.399 575.802L247.618 576.496L248.339 576.003L248.429 576.547L248.57 576.014L249.891 576.446L249.871 577.23L248.58 577.854L249.941 577.271L250.051 575.471L249.501 572.786L249.921 570.714L253.186 568.773L255.418 569.155L256.67 568.26L257.321 565.676L259.974 564.851L260.996 561.875L262.317 561.995L262.267 560.246L262.868 558.486L263.649 557.933L264.6 558.506L266.072 558.305L266.292 557.581L266.202 556.133L265.301 555.258L263.299 556.495L260.615 555.469L260.154 556.153H259.333L256.55 558.023L256.109 557.752V558.254L254.978 559.19L254.077 559.039L251.804 557.993L250.142 555.781L249.601 556.485L247.458 556.897L246.707 556.173L246.006 554.312L243.413 550.974L245.105 553.438L244.064 553.096L245.115 554.423L243.643 553.79L245.325 555.147L243.173 554.071L245.135 555.65L244.174 556.404L244.244 555.479L240.269 555.238L239.949 554.805L240.9 554.564L242.362 553.749L240.499 554.473L239.328 553.619L238.677 550.411L238.987 549.114L240.609 547.464L240.92 547.947L240.629 547.434L240.9 546.841L241.4 547.313L240.99 546.831L241.17 545.906L242.161 543.784L244.354 539.822L247.779 535.508L261.777 530.198L265.541 527.332L266.973 525.281L268.806 524.607L269.036 523.873L270.057 523.782L268.715 523.571L268.015 521.459L268.445 515.436L268.886 514.199L269.597 513.937L268.105 513.998L267.204 512.59L266.202 512.489L265.161 511.122L264.82 511.292L264.62 512.771L262.307 513.173L261.346 512.861L262.167 513.304L260.645 514.38L257.401 512.63L257.591 511.393L257.111 509.181L258.422 508.396L257.741 507.521L257.832 506.264L258.312 505.892L257.791 504.193L257.972 502.936L257.852 502.343L256.95 502.041L256.199 499.698L254.948 498.582L254.427 495.042L253.556 495.434L252.645 494.338L252.445 492.095L253.025 487.671L252.585 488.485L251.684 488.254L251.473 487.691L250.692 486.464L250.963 486.997L250.572 487.067L250.622 487.299L251.103 487.208L251.704 488.425L250.883 488.696L251.243 489.109L249.731 490.325L248.74 489.933L248.459 489.028L248.92 487.6L249.771 487.339L249.06 487.48L248.57 485.589L248.78 484.654L248.369 482.612L248.7 481.305L248.059 479.927L246.607 479.706L246.207 478.379L247.128 475.231L249.22 474.98L249.1 474.497L245.175 474.115L243.964 474.698L242.782 476.247H240.96L240.539 477.242L239.137 477.444L237.916 476.539L236.784 476.82L235.072 478.308L230.396 476.529L226.892 471.128L224.328 468.494L222.166 467.669L222.005 466.744L221.835 467.136L221.925 466.684L221.044 465.678L219.913 465.024L219.432 465.215L219.412 464.431L219.002 464.672L219.502 465.598L219.272 466.09L218.301 465.417L216.398 462.45L216.749 462.189L216.659 462.018L216.288 462.45L215.607 461.253L216.899 460.409L216.088 457.794L216.538 459.926L215.627 460.348L213.885 455.763L213.955 455.34L215.297 455.21L215.117 452.384L214.125 447.778L213.294 447.336L214.105 445.365L214.966 445.314L215.777 446.169L216.288 445.817L216.258 444.962L216.939 444.49L217.089 443.384L217.73 443.162L218.07 442.318L217.269 441.433L217.41 440.075L216.939 439.381L217.169 437.843L216.789 437.018L215.006 436.515L214.446 437.129L213.284 437.028L211.842 435.701L211.522 434.082L212.203 432.694L210.591 432.845L210.06 431.91L209.459 432.483L208.328 432.312L207.757 431.678L207.817 431.035L204.303 432.734L203.422 431.246L203.151 431.397L203.772 432.211L203.101 432.674L196.733 431.407L196.613 432L196.503 432.332L196.653 431.367L193.439 430.944L193.038 430.341L193.369 429.375L192.788 428.963L191.726 430.502L192.127 431.316L190.335 432.865L189.003 431.97L183.726 432.825L182.765 434.132L182.915 433.428L178.65 432.01L177.829 432.382L177.168 431.99L178.88 431.397L178.419 428.963L176.156 429.386L175.976 429.496ZM1.48191 567.194V567.013L1.08139 565.344L0.480618 565.153L0 565.746L0.110142 567.104L1.48191 567.204V567.194ZM52.7378 474.014L50.8053 473.23L50.2746 471.681L49.3434 471.752L48.6425 472.667L48.5524 474.96L47.6312 476.971L48.0318 477.977L47.6312 478.992L46.8402 479.183L47.0004 478.288L46.63 477.967L44.0466 478.138L43.7162 476.659L42.3545 477.524L41.4032 477.484L40.7824 480.229L38.4695 482.1L37.6484 482.21L36.577 485.126L35.1552 486.192L34.3442 485.961L33.3429 487.419L31.4204 487.359L29.538 490.667L28.8371 494.147L24.9421 502.654L23.0797 509.362L24.0509 515.003L23.8306 523.058L24.8319 524.466L26.434 528.649L30.0386 531.797L33.6132 534.029L40.4019 535.005L45.8189 537.167L48.4122 536.855L54.7103 533.446L55.7417 532.169L55.4112 529.987L56.1722 527.795L56.5527 522.435L57.4939 521.188L57.0734 520.886L59.8369 519.448L61.8896 517.346L62.1799 517.598L64.593 514.37L64.4729 513.575L63.5117 512.992L63.7219 512.308L64.3327 512.469L64.3027 512.972L64.5129 512.318L64.2326 509.854L62.7507 506.556L61.7294 506.636L62.26 505.862L62.6205 506.224L62.3402 505.138L61.2788 503.469L60.2775 503.016L60.3876 502.886L60.3676 502.514L60.0872 503.046L59.3964 502.544L60.3276 502.192L60.0772 499.466L59.5766 499.356L58.6454 496.952L59.3263 492.578L58.5453 487.56L58.2249 487.53V486.605L58.6854 486.565L58.4752 484.483L57.1435 480.672L56.3925 475.945L54.3899 473.693L52.7578 473.974L52.7378 474.014ZM155.159 430.793L154.529 430.009L154.188 430.592L154.398 431.397L153.848 431.527L154.148 431.779L153.848 432.292L152.736 432.644L153.948 434.222L154.629 434.001L154.969 434.414L155.34 436.646L154.959 439.059L156.892 440.859L157.052 442.74L158.784 442.901L158.834 439.743L157.052 439.562L156.671 437.541L157.212 436.716L157.843 436.696L158.754 434.967L159.956 435.067L160.787 433.8L159.255 432.714L158.504 431.055L158.173 432.02L157.402 432.221L155.129 430.783L155.159 430.793ZM286.488 334.124L285.707 333.541L282.463 333.792L277.647 335.14L277.687 335.884L277.036 336.015L276.946 335.633L275.424 336.336L274.002 338.096L273.291 337.774L272.971 338.961L271.86 340.027L271.439 339.695L270.428 340.912L269.176 341.043L268.816 341.747L266.793 341.807L266.463 340.691L265.051 341.556L264.23 341.576L264.09 341.173L260.905 341.676L259.414 342.3L259.073 343.185L257.661 343.124L257.491 343.778H256.94L254.547 345.729L253.466 345.508L252.114 346.372V346.956L251.603 347.187L251.854 349.681L249.861 350.717L243.113 356.579L241.971 356.76L241.771 356.097L240.169 357.122L238.737 357.283L237.495 358.369L236.704 357.816L234.161 357.756L233.991 359.757L233.35 361.034L233.32 357.937L230.246 357.424L229.645 357.736L229.545 359.063L229.285 357.585L227.372 357.615L226.601 356.921L225.139 357.344L224.969 356.951L224.999 357.303L222.686 357.334L221.705 358.49L221.224 360.2L219.062 362.05L216.699 361.617L214.145 362.412L215.026 366.092L214.265 365.569L214.065 364.031L213.294 362.935L212.713 364.644L211.752 365.771L209.139 373.725L210.02 375.847L211.832 377.255L211.993 378.2L211.642 378.512L213.414 380.272L213.575 384.364L215.237 387.16L214.406 394.129L214.966 395.094L214.926 396.029L214.316 398.091L214.396 399.921L215.847 402.093L215.207 402.264L214.646 401.51L215.187 402.335L216.298 402.546L217.6 403.652L218.261 406.317L218.201 407.071L217.42 407.855L216.689 407.644L216.338 406.88L216.378 408.74L215.157 409.434L215.437 410.55L215.177 412.441L214.005 413.205L214.265 415.639L214.496 415.991L215.737 415.619L216.849 416.212L217.039 418.193L217.58 418.002L219.212 418.907L219.732 418.545L221.665 418.817L226.321 421.582L227.643 424.649L227.683 429.456L228.864 431.397L228.844 432.503L229.996 431.779L235.503 431.548L237.065 432.865L237.015 433.75L237.756 434.796L237.876 436.023L246.387 431.155L248.359 432.342L250.752 432.091L252.715 433.167L255.779 433.488L256.99 433.257L258.853 430.854L258.613 431.618L260.765 430.653L261.106 431.306L261.596 430.27L263.038 429.275L268.435 428.33L271.87 430.17L271.739 430.622L271.829 431.045L272.06 430.582L272.651 430.733L272.841 432.312L272.1 432.352L272.01 431.779L271.619 431.527L271.519 432.603L272.871 433.921L273.422 435.56L272.42 437.37L273.912 437.903L274.653 439.23L275.344 439.502L275.194 437.692L276.445 436.385L276.536 434.846L277.927 433.589L278.128 432.282L279.169 431.035L278.778 430.421L277.737 430.522L277.076 429.818L276.966 429.526L277.757 429.315L276.956 429.456L276.716 428.903L277.226 426.489L276.656 425.946L276.836 425.604L278.308 424.699L279.459 425.755L281.462 425.152L284.095 425.504L285.597 424.991L284.806 424.659L284.746 423.613L283.064 422.427L282.974 420.637L286.328 411.938L285.928 408.549L286.228 406.629L286.739 405.311L287.269 405.231L288.14 403.471L287.209 405.14L286.629 405.1L286.478 401.218L287.359 401.289L287.68 402.616L287.61 400.142L286.899 400.082V399.428L289.032 396.945L289.993 396.774L290.463 396.14L289.873 395.788L290.504 395.346L290.443 394.3L289.162 393.093L289.372 391.655L290.744 390.036L292.326 389.825L293.247 387.743L300.677 385.39L300.306 384.505L300.837 383.902L304.481 382.343L305.833 380.895L306.344 378.854L307.475 377.747L308.026 377.858L307.836 377.345L308.667 376.48L309.117 373.584L310.019 372.257L309.999 371.141L310.339 370.527L311.44 370.386L309.878 370.175L309.808 369.139L310.349 368.486L309.608 365.097L310.549 367.903L313.703 367.239L316.106 368.335L316.557 370.698L315.716 372.166L316.146 373.695L317.238 374.61L318.379 372.679L319.991 371.462L320.963 367.359L319.991 365.157L320.292 363.8L321.113 362.623L320.973 360.501L324.177 359.113L324.918 357.867L322.014 355.272L321.343 354.015L321.133 351.31L321.664 350.847L321.113 351.008L320.682 350.214L319.651 350.807L319.471 350.485L320.863 349.641L320.542 349.681L319.701 347.589L319.361 347.428L318.289 348.635L317.989 348.394L319.19 347.046L319.781 347.277L319.811 345.256L320.973 345.196L321.573 347.69L321.433 345.135L320.893 344.351L321.944 343.205L322.835 344.19L321.904 343.064L318.86 340.781L316.817 340.982L312.051 339.605L310.78 339.464L311.04 340.258L306.134 339.745L306.154 339.263L305.983 339.735L304.291 339.715L304.251 338.609L301.287 338.267L299.215 338.589L298.864 339.162L298.514 338.941V339.564L298.284 338.911L298.093 338.619L298.444 339.564L296.381 339.705L296.311 338.84L295.36 338.921L295.38 339.393L295.22 338.861L291.835 337.955L289.432 336.055L288.471 335.974L286.518 334.074L286.488 334.124ZM167.175 404.416L166.013 403.622L165.503 403.883L165.773 404.949L163.73 406.598L162.469 405.985L162.189 407.594L160.216 409.012L158.974 409.163L158.574 408.398L157.913 409.535L156.641 410.349L155.33 410.691L155.049 410.249L153.547 410.269L153.157 410.721L153.808 410.752L153.888 411.546L153.017 412.873L152.206 413.185L151.705 412.431L151.214 413.869L147.95 416.091L148.13 416.886L147.63 418.042L149.212 418.414L149.382 419.903L147.97 422.185H147.159L146.739 421.441L145.807 422.266L145.217 421.481L145.737 423.483L148.12 424.689L148.651 425.866L149.232 425.916L149.773 426.721L150.604 425.242L152.035 425.946L152.937 425.856L152.055 425.886L151.164 425.162L151.294 424.146L153.137 423.654L153.688 422.256L154.078 423.875L153.758 424.921L154.168 423.875L153.778 422.145L155.049 420.245L156.832 419.289H160.426L163.11 420.556L165.553 419.45L166.224 417.62L165.463 417.067L165.793 415.478L166.484 414.03L168.056 413.99L168.136 411.697L168.607 410.369L169.137 410.319L168.977 409.615L169.308 409.293L168.847 408.549L168.447 408.64L168.026 407.141L168.807 405.794L168.687 404.989L167.195 404.426L167.175 404.416ZM358.931 387.311L355.988 389.976L355.707 391.263L352.814 396.07L352.553 398.342L353.204 405.09L351.332 405.804L351.412 406.146L353.655 405.734L353.935 407.172L357.199 412.562L357.97 415.287L355.827 417.047L354.336 419.138L354.566 421.3L353.945 423.975L354.486 424.478L355.787 423.493L356.348 423.704L358.06 425.011L358.461 425.926L359.833 425.102L360.774 425.745L361.985 425.534L364.439 428.521L366.071 431.578L367.242 431.719L369.034 433.78L370.667 434.182L371.658 435.309L373.59 433.016L374.982 433.036L374.251 430.411L374.341 429.868L375.483 429.788L374.491 429.707L374.341 429.174L374.942 428.883L374.311 429.054L374.011 427.867L375.393 427.696L376.634 429.426L375.483 427.575H374.431L374.351 426.67L376.384 424.498L376.814 423.06L378.326 420.989L383.833 417.328L384.965 413.316L386.227 412.27L386.947 409.394L386.787 407.151L387.408 406.377L387.218 405.281L388.489 402.113L388.94 397.297L387.408 397.246L385.105 395.185L385.355 397.297L383.393 399.871L379.708 399.599L379.017 398.312L379.598 399.65L379.498 400.223L378.757 400.494L378.226 400.424L377.505 398.483L378.126 396.703L377.195 397.809L376.474 397.84L376.244 398.986L376.574 399.559L375.493 399.941L374.632 400.987L375.933 398.885L370.426 395.376L370.466 393.586L366.792 394.4L366.111 394.028L366.962 391.937L363.467 390.659L362.947 392.661L361.194 392.128L359.582 390.428L358.691 387.904L358.881 387.341L358.931 387.311ZM326.61 395.175L325.158 395.275L323.386 400.706L320.492 403.823L320.212 405.442L321.373 407.031L322.545 409.937L326.67 412.27L330.084 412.954L330.705 412.039L330.585 410.882L332.497 408.791L334.06 404.537L330.675 403.421L328.172 401.269L327.771 400.293L328.352 398.393L327.341 396.985L327.651 396.532L327.321 395.557L326.59 395.175H326.61ZM196.953 364.644L194.029 365.117L194.8 365.861V366.505L194.11 368.073L193.268 368.466L193.509 370.266L192.908 370.608L192.437 371.744L190.835 372.699L189.754 371.905L188.112 373.785L186.35 374.831L185.298 374.751L184.037 373.564L181.453 374.902L180.572 378.572L180.172 379.346L179.27 379.698V381.207L178.58 381.639L178.73 382.655L178.249 383.087L179.02 384.374L180.302 384.746L181.063 384.133L183.135 384.927L184.587 386.677L185.579 391.444L185.178 394.129L184.057 394.642L184.097 397.156L184.738 398.372L186.53 398.292L187.531 399.438L189.133 400.042L190.325 399.72L192.648 397.769L194.991 397.377L196.423 396.039L199.316 395.949L201.069 397.709L201.559 400.072L203.131 400.394L203.552 400.997L204.142 400.866L204.503 400.112L206.035 399.971L208.348 400.927L209.589 402.757L210.25 401.228L212.183 400.695L212.653 399.438L213.304 396.05L212.393 394.35L212.093 390.901L212.824 389.684L211.342 385.37L210.31 383.57L208.969 382.373L207.987 380.312L208.017 378.391L207.337 375.716L206.956 375.133L206.526 375.465L205.464 373.745L204.583 373.594L206.345 372.609L206.756 368.898L205.745 367.993L203.642 368.204L198.936 365.68L197.244 365.388L196.973 364.654L196.953 364.644ZM397.962 385.008L398.522 384.022L398.813 382.504L399.474 382.393L401.426 379.749L403.709 378.19L403.999 376.108L406.272 376.169L408.485 373.152L411.119 372.91L412.05 370.919L414.643 369.26L415.514 367.138L417.016 365.75L417.176 364.483L419.159 362.191L418.057 358.168L418.538 357.233L420 356.68L419.76 354.769L417.076 354.407L415.684 352.818L414.974 350.707L412.811 347.579L412.781 346.091L411.779 344.331L413.271 343.376L413.391 341.113L412.04 340.299L410.758 338.267L409.166 336.93L408.255 334.838L407.234 334.697L404.69 336.075L403.779 335.331L403.088 333.128L400.595 333.601L394.587 332.756L393.005 331.369L390.142 327.296L388.67 328.141L387.949 330.966L387.258 331.409L386.887 332.585L383.823 330.625L381.691 330.182L381.32 333.098L380.719 333.058L381.31 333.229L381.15 333.933L379.969 337.453L379.878 339.504L380.279 340.158L379.558 340.842L380.359 340.268L380.81 341.274L379.788 341.535L380.399 341.586L380.319 342.762L379.508 343.929L376.144 345.759L373.951 346.322L371.738 348.896L370.246 349.741L368.974 349.942L367.092 349.45L365.64 346.634L365.85 346.061L363.838 347.137L361.795 347.056L359.562 348.514L359.052 349.44L359.152 350.174L358.481 351.018L358.681 351.35L357.62 352.306L358.831 354.679L358.1 355.694L358.631 358.319L358.01 359.797L357.97 361.809L355.097 362.864L354.285 361.708L354.035 360.039L354.306 359.787L352.774 358.339L351.692 354.9L349.79 354.347L348.428 352.557L346.325 353.472L343.361 353.633L342.691 356.972L338.776 358.932L337.023 358.822L337.093 357.957L336.893 358.812L335.511 358.651L335.621 356.961L336.312 356.891L335.481 356.811L335.351 358.631L334.43 358.49L334.23 357.414L332.618 356.408L332.447 354.528L332.027 354.337L331.626 355.594L331.977 357.344L331.576 357.625L333.238 358.852L332.477 358.882L333.128 359.455L332.207 359.294L332.728 359.526L332.768 360.25L333.569 359.968L333.749 360.622L333.058 361.225L332.878 362.874L333.228 364.564L334.23 365.66L333.569 367.963L333.649 369.602L332.768 370.628L332.457 372.569L336.202 375.957L341.699 377.426L344.683 378.572L344.933 379.246L347.547 379.055L350.771 377.305L352.714 376.973L352.473 376.37L352.794 375.374L356.188 373.011L357.8 369.592L360.473 369.401L357.82 369.461L357.87 368.808L360.113 367.913L360.323 368.596L360.724 368.104L361.144 368.657L360.584 366.857L361.685 366.555L362.806 367.068L361.915 369.461L362.917 367.138L368.073 372.116L370.266 371.332L371.878 372.267L372.038 373.122L371.998 372.247L372.729 371.603L373.971 371.462L376.214 373.474L381.12 370.135L383.042 370.748L383.193 369.381L385.195 368.194L387.678 370.004L389.431 369.491L387.698 369.884L385.215 368.053L384.855 367.058L386.998 364.101L387.668 361.507L389.14 361.326L387.668 361.376L387.358 358.601L389.831 356.62L394.517 354.789L394.748 358.027L394.127 358.219L394.257 358.932L395.188 359.043L395.839 360.682L394.537 360.903L394.918 362.925L394.487 363.96L395.488 363.94L396.58 365.127L396.27 365.469L395.358 364.333L392.264 365.157L392.775 366.997L393.276 366.877L393.326 367.48L391.734 367.903L393.135 367.671L393.896 368.214L394.477 369.381L398.372 373.665L398.622 375.827L398.142 376.038L397.671 375.012L398.022 376.088L397.591 376.269L397.111 375.012L397.481 376.319L396.78 376.631L396.32 374.922L395.869 375.103L396.32 375.264L396.66 376.681L395.709 377.084L394.988 375.183L394.277 375.435L395.148 377.637L399.033 375.967L399.974 378.743L398.472 379.195L397.351 378.502L398.462 379.276L399.894 379.387L399.093 380.03L400.024 380.815L399.694 381.508L398.733 380.975L399.414 381.579L398.442 382.454L397.952 384.978L397.962 385.008ZM183.336 357.565L183.886 360.008L188.202 358.751L190.885 358.621L190.865 358.219L192.588 358.168L192.828 358.802L193.299 357.957L201.028 356.157L200.408 354.649L204.563 353.402L203.692 355.443L203.011 355.704L203.722 355.554L203.111 356.982L203.832 355.523L204.203 355.795L203.892 356.76L205.194 357.142L207.327 357.203L205.024 356.992L205.654 354.679L208.057 355.151L207.727 356.227L209.309 355.855V356.7L207.927 357.032L209.399 356.77V355.825L212.093 355.463L213.174 354.991L213.084 354.478L214.516 353.995L214.896 354.488L221.335 352.074L221.124 351.159L222.766 350.717L222.746 349.962L223.818 349.53L224.839 349.379L225.2 350.878L225.991 351.199L238.086 348.001L240.139 347.841L244.955 346.03L253.356 341.415L253.956 340.178L255.078 340.117L256.6 339.243L257.171 339.162L257.441 339.675L257.241 339.162L259.353 338.297L259.694 338.78L259.524 338.358L261.296 337.292L265.241 335.773L265.001 335.23L265.381 334.979L267.324 334.054L267.544 334.506L268.705 334.375L271.509 333.139L271.419 332.837L273.041 332.133L272.941 331.58L273.251 332.032L276.836 331.017L276.766 330.554H280.901L281.852 330.202L281.021 330.172L283.404 329.82L286.358 330.152L291.485 333.873L295.44 334.778L300.917 333.34L302.199 333.169L302.319 333.641L304.962 333.239L314.735 330.604L317.328 330.816L317.238 324.45L314.084 324.35L314.104 323.636L315.906 323.726L316.036 323.153L316.957 323.203L317.218 323.847L317.008 323.143L315.185 322.911L315.135 321.162L319.721 321.665L322.885 321.343L323.416 320.679L324.167 313.7L325.478 311.448L327.341 310.17L335.902 308.059L329.363 282.717L328.562 272.721L326.3 271.766L325.599 272.54L322.525 266.658L320.502 266.597L317.759 264.697L316.066 264.465L314.414 266.135L312.031 266.688L311.16 264.516L311.27 263.048L309.848 262.414L309.598 261.489L308.276 260.101L308.477 257.909L307.836 257.155L312.502 256.762L312.832 256.36L312.642 254.922L307.876 249.965L310.099 248.255L313.323 249.773L313.493 252.006L317.208 258.392L321.463 259.779L326.169 260.051L326.44 258.945L327.771 258.854L326.98 257.376L328.452 257.476L328.663 256.048L330.625 254.057L332.477 246.958L331.727 244.504L329.003 242.422L326.6 241.588L326.35 239.396L324.267 235.122L319.981 237.515L318.269 242.352L314.074 242.694L313.513 239.989L312.302 239.375L310.179 235.715L306.804 235.313L305.853 234.488L303.931 234.468L299.325 227.409L299.805 224.844L293.607 226.071L293.257 224.804L292.206 224.11L289.152 219.505L287.77 215.623L286.498 214.285L285.978 212.465L284.916 211.158L284.896 209.157L285.437 208.352L286.689 207.85L289.512 205.185L293.788 204.551L296.221 202.429L296.942 201.213L299.725 202.158L300.166 203.817L301.257 205.195L303.63 205.436L305.943 204.28L310.499 204.089L311.05 203.676L311.701 201.373L314.494 200.167L315.085 196.637L314.625 195.048L315.295 193.419L314.164 191.508L314.514 189.899L314.064 187.044L311.841 184.771L318.079 183.866L319.05 180.638L320.672 177.892L320.943 174.091L323.616 172.955L326.94 170.079L329.033 170.421L327.191 168.671L325.829 165.403L325.689 161.491L324.287 159.118L324.707 157.458L324.287 155.055L325.929 154.532L327.02 154.743L328.983 153.758L329.824 152.843L330.535 150.439L333.499 149.132L336.893 150.62L335.141 144.064L333.218 142.555L333.749 140.232L335.852 139.317L335.782 136.994L336.743 136.129L336.392 134.933L336.573 133.032L333.499 131.242L331.716 128.356L329.183 125.671L321.774 125.158L320.162 126.224L318.009 124.806L316.156 125.973L315.395 128.105L314.154 129.603L311.23 131.624L309.107 132.187L308.106 133.515L305.873 133.354L304.902 134.52L303.08 134.691L302.299 135.586L300.777 135.124L297.362 135.556L294.388 134.581L295.29 131.393L295.069 129.754L294.248 127.883L291.585 124.997L291.935 123.067L291.565 122.101L292.236 120.472L291.234 115.072L291.515 113.091L293.938 112.799L295.91 109.813L298.203 109.561L301.798 106.977L302.96 105.519L303.941 105.177L304.341 102.602L305.383 101.959L306.574 99.133L306.434 98.3688L308.997 93.4312L308.837 89.6602L308.627 88.9362L309.428 87.9104L309.688 86.4724L309.658 83.7774L308.066 82.8019L305.743 80.2779L305.132 77.5426L303.38 79.1918L302.779 81.1025L299.115 82.1785L296.641 81.8164L294.699 82.269L293.497 81.8265L291.044 84.7126L289.332 83.2846L288.09 81.4645L287.82 79.3426L286.118 78.8298L284.656 76.7582L282.984 76.6979L280.491 73.4196L277.777 73.2889L276.215 71.3983L275.424 71.1167L274.363 71.4687L270.097 74.9783L267.494 75.8733L268.305 81.4343L268.455 86.4121L268.055 87.7898L266.663 89.3786L263.809 85.9193L256.53 83.9785L255.589 79.232L255.048 71.6196L248.63 72.424L244.945 73.7515L244.094 72.8363L244.534 70.6542L243.994 69.186L245.015 68.9245L244.294 65.9077L242.972 66.0887L241.971 65.5256L241.611 66.3904L240.729 66.863L240.399 67.9189L239.378 68.5122L236.985 67.9189L236.524 66.0585L236.764 60.6182L236.364 56.2337L235.723 54.7354L236.744 51.2057L237.826 50.8939L237.876 49.9889L232.048 50.8738L230.957 53.4281L228.854 54.3633L225.971 51.799L221.625 49.1341L221.074 47.1832L219.142 45.353L218.881 42.2055L216.378 34.412L216.989 29.3538L214.195 26.5179L212.924 24.557L214.876 20.6452L216.288 19.2373L214.756 16.9546L212.683 15.416L210.03 16.6127L207.867 16.673L206.596 17.6183L201.219 17.2261L198.645 11.836L199.316 7.86387L195.341 8.11527L188.973 6.26495L186.169 3.41907L185.168 1.3978L182.655 0L182.565 0.623478L181.563 1.53858L182.004 3.76098L181.784 4.7867L180.362 5.91299L179.931 7.23034L180.222 11.836L178.159 14.6316L174.755 16.0797L169.758 16.5021L168.386 17.4071L168.286 20.3033L167.696 20.9569L167.455 22.9179L166.724 24.0039L166.314 27.2923L166.524 29.6756L161.788 33.7785L161.468 35.6388L159.655 37.459L159.725 41.3809L161.538 42.5876L161.648 44.277L162.148 44.8904L161.698 46.3385L158.824 48.4L158.364 48.2291L158.464 45.4536L158.033 44.9809L155.94 46.2279L155.049 47.7162V49.3252L153.537 50.4414L151.234 49.5866L150.513 48.3799L148.651 48.209L147.85 48.8827L145.787 47.7062L142.333 49.5766L140.571 49.2146L136.235 50.2705L133.552 52.7342L131.649 53.599L128.896 54.0515L127.524 53.7901L125.812 56.3041L122.097 56.4248L117.251 59.4517L115.869 61.9657L113.356 63.7456L110.222 64.1982L104.945 62.559L103.573 63.8563L101.18 64.7412L99.9585 66.0887L97.6956 66.9736L93.4501 64.9423L92.2586 63.1222L91.6278 63.1724L90.246 64.8417L87.0519 62.7501L86.9418 64.7613L86.1708 66.7222L83.7777 67.8787H81.0943L80.4034 69.6385L77.78 69.7089L76.5785 70.4128L74.5458 75.2498L77.2994 78.3169L77.0891 79.403L76.0378 80.9114L75.7474 83.0131L72.5232 83.3651L71.3617 82.3494L68.1276 81.4947L62.6706 81.193L59.7368 82.0377L58.5052 81.4846L56.4526 82.0578L57.7843 85.507L57.4439 86.9853L57.9645 88.7652L56.9432 90.2837L56.5227 93.2201L52.4474 94.6179L50.3547 97.0615L48.9229 97.8056L48.7727 100.863L47.2708 102.683L46.5298 105.68L45.2281 107.801L42.1742 109.712L41.0127 113.584L38.099 113.503L35.6258 116.158L34.4944 119.999L32.0612 120.392L30.4491 123.579L28.4966 124.072L29.9085 130.458L27.996 131.715L27.1649 132.891L26.7143 134.923L25.6229 136.129L25.2925 138.392L26.1536 140.363L26.5541 143.179L28.5968 143.883L29.2076 146.749L29.0073 147.614L30.369 150.701L32.9424 153.426L34.6245 153.486L39.4007 157.157L41.253 156.644L43.4659 155.115L47.461 150.811L49.6739 151.093L51.5763 150.469L53.3986 151.535L55.3011 151.837L57.0734 150.992L59.1561 154.08L60.5779 157.237L60.648 159.098L59.6367 161.863L60.4777 164.659L62.23 166.187L62.5304 167.595L65.5343 167.766L67.4367 169.536L69.0187 169.415L69.9399 170.159L73.5446 175.63L74.2455 173.086L75.427 172.08L75.3469 170.562L76.5684 170.099L77.019 169.264L78.6812 168.963L79.6124 168.007L80.1531 166.056L81.6049 164.779L84.2583 165.453L84.739 166.7L84.5087 169.194L85.2496 170.109L86.7315 170.773L86.8717 168.721L87.893 166.891H89.5551L91.2473 165.544L92.7092 165.141L95.2224 162.466L97.5955 162.054L98.6368 158.414L100.609 157.217L103.103 153.949L102.592 152.058L102.802 151.405L103.944 150.63L103.413 148.881L103.593 148.086L112.224 149.393L114.277 151.304L117.281 152.41L118.542 153.949L118.482 156.121L119.664 158.575L120.475 158.917L121.306 158.575L124.019 162.305L125.161 162.517L126.543 164.246L128.856 168.731L130.848 169.868L131.649 172.251L130.668 174.282L131.018 175.68L130.848 178.214L128.645 181.09L126.372 182.709L126.433 184.761L128.585 187.627V188.19L128.015 193.791L126.623 197.562L126.403 201.937L128.695 203.244L131.129 200.358L132.22 200.207L133.051 200.67L133.912 203.023L136.756 202.811L137.677 203.646L137.937 206.572L139.71 207.759L140.781 210.494L140.831 213.561L139.85 216.669L140.761 220.621L140.781 223.276L141.742 223.929L143.735 227.479L145.547 228.243L146.909 229.681L148.801 229.5L151.555 230.838L152.136 231.662L153.167 231.572L154.188 232.879L155.95 233.452L157.012 235.182L158.594 240.723L156.852 243.871L157.142 245.64L156.621 246.867L157.092 248.335L156.501 249.934L157.492 251.946L159.675 254.299L161.728 253.052L164.171 252.448L165.573 253.514L169.999 253.947L172.061 254.771L175.536 253.715L175.636 255.767L176.927 256.521L178.9 255.878L182.965 256.491L185.008 259.196L182.515 260.363L182.615 260.795L186.36 264.073L188.222 268.176L190.084 270.177L191.576 272.862L194.019 273.013L196.292 271.676L196.993 272.339L196.292 273.888L196.403 277.146L190.425 276.714L188.943 277.196L186.96 277.046L181.183 282.375L180.842 284.809L179.581 285.905L181.694 286.76L182.164 287.896L185.228 290.591L185.519 291.345L185.238 293.347L184.207 293.97L179.481 294.644L176.897 299.028L171.51 298.314L170.95 298.686L167.595 303.393L167.646 304.619L164.802 313.549L163.08 315.731L159.685 317.19L158.774 318.567L159.715 321.403L159.795 323.947L161.458 323.253L163.28 324.219L164.682 325.687L166.875 326.3L168.156 326.331L169.768 325.536L171.611 325.908L169.017 331.459L168.887 332.756L168.096 333.853L168.447 335.532L167.866 337.392L167.796 339.967L168.206 340.661L172.302 341.938L175.566 343.818L177.378 341.988L180.452 342.752L180.832 341.204L182.455 338.358L184.687 337.825L187.261 335.27L188.753 334.748L194.24 340.007L196.973 340.952L198.305 342.169L196.523 343.687L195.201 343.899L189.153 348.655L187.02 351.36L187.351 351.602L185.839 353.542L186.119 354.025L183.346 356.74L183.196 357.645H183.206L183.336 357.565Z" fill="white"/>
</svg>
