<svg width="55" height="121" viewBox="0 0 55 121" fill="none" xmlns="http://www.w3.org/2000/svg">
<path d="M39.8697 114.48C41.14 114.013 42.6658 114.995 43.2774 116.672C43.8886 118.349 43.3548 120.087 42.0844 120.554C40.8137 121.02 39.2883 120.039 38.6767 118.361C38.0655 116.684 38.5993 114.946 39.8701 114.48H39.8697Z" fill="#CCE1E4"/>
<path d="M35.042 111.805C36.3712 111.921 37.3257 113.436 37.1746 115.191C37.0231 116.946 35.8233 118.274 34.4941 118.16C33.1653 118.044 32.2108 116.528 32.3619 114.773C32.5134 113.018 33.7133 111.69 35.042 111.805Z" fill="#CCE1E4"/>
<path d="M45.3926 111.865C46.559 111.176 48.2351 111.867 49.1368 113.407C50.0381 114.948 49.8234 116.753 48.6565 117.441C47.4901 118.129 45.8137 117.437 44.9124 115.897C44.0111 114.357 44.2262 112.552 45.3926 111.864V111.865Z" fill="#CCE1E4"/>
<path d="M51.64 110.039C50.8838 111.142 49.0989 111.227 47.6533 110.229C46.2073 109.23 45.6485 107.527 46.4043 106.424C47.1606 105.321 48.9454 105.236 50.391 106.234C51.8366 107.233 52.3959 108.936 51.64 110.039V110.039Z" fill="#CCE1E4"/>
<path d="M43.8741 109.831C43.7299 110.833 43.1179 111.746 42.14 112.209C41.1622 112.672 40.0703 112.566 39.2085 112.041C38.2556 111.461 37.6464 110.702 36.8257 110.371C36.0054 110.04 33.7072 111.027 32.2765 108.419C31.2661 106.577 32.1935 104.249 34.088 103.352C35.528 102.67 36.6674 102.746 37.5042 102.35C38.3406 101.955 39.0066 101.023 40.4466 100.341C42.3411 99.4441 44.7214 100.205 45.4958 102.159C46.5921 104.925 44.3717 106.078 44.105 106.924C43.8382 107.77 44.0341 108.724 43.8745 109.831H43.8741Z" fill="#CCE1E4"/>
<path d="M42.7779 81.0199C44.0483 80.5529 45.5741 81.5347 46.1857 83.2118C46.7969 84.889 46.263 86.6269 44.9927 87.0935C43.7219 87.5597 42.1965 86.5788 41.5849 84.9012C40.9737 83.224 41.5076 81.4861 42.7783 81.0199H42.7779Z" fill="#CCE1E4"/>
<path d="M37.9503 78.3448C39.2795 78.4605 40.2339 79.9759 40.0829 81.7311C39.9314 83.4856 38.7315 84.8142 37.4023 84.6994C36.0736 84.5833 35.1191 83.0675 35.2702 81.3127C35.4217 79.5582 36.6215 78.2296 37.9503 78.3448Z" fill="#CCE1E4"/>
<path d="M48.3009 78.4043C49.4673 77.7161 51.1434 78.4072 52.0451 79.9469C52.9464 81.4878 52.7316 83.2932 51.5648 83.9809C50.3984 84.6683 48.7219 83.9769 47.8206 82.4372C46.9193 80.8967 47.1345 79.0913 48.3009 78.4039V78.4043Z" fill="#CCE1E4"/>
<path d="M54.5483 76.579C53.792 77.6817 52.0072 77.767 50.5616 76.7687C49.1155 75.77 48.5567 74.0669 49.3126 72.9639C50.0688 71.8612 51.8537 71.7759 53.2993 72.7742C54.7449 73.7725 55.3041 75.4756 54.5483 76.5786V76.579Z" fill="#CCE1E4"/>
<path d="M46.7824 76.3709C46.6381 77.3724 46.0261 78.2863 45.0483 78.7492C44.0704 79.2122 42.9785 79.1054 42.1167 78.5806C41.1639 78.0004 40.5547 77.2423 39.734 76.9111C38.9137 76.5799 36.6155 77.5665 35.1848 74.959C34.1743 73.1172 35.1018 70.789 36.9962 69.8918C38.4362 69.2101 39.5756 69.2861 40.4125 68.8903C41.2489 68.4944 41.9149 67.5628 43.3549 66.8811C45.2493 65.9839 47.6297 66.7453 48.404 68.699C49.5003 71.4651 47.2799 72.6179 47.0132 73.4641C46.7465 74.31 46.9423 75.2642 46.7828 76.3709H46.7824Z" fill="#CCE1E4"/>
<path d="M8.12263 48.5224C9.39298 48.0554 10.9188 49.0371 11.5304 50.7143C12.1416 52.3915 11.6077 54.1293 10.3374 54.5959C9.06663 55.0621 7.54124 54.0812 6.92963 52.4036C6.31843 50.7264 6.85227 48.9886 8.12303 48.5224H8.12263Z" fill="#CCE1E4"/>
<path d="M3.29502 45.8473C4.6242 45.9629 5.57867 47.4784 5.42759 49.2336C5.27609 50.988 4.07625 52.3167 2.74707 52.2018C1.4183 52.0858 0.463821 50.5699 0.61491 48.8151C0.766401 47.0607 1.96625 45.732 3.29502 45.8473Z" fill="#CCE1E4"/>
<path d="M13.6456 45.9068C14.812 45.2186 16.4881 45.9096 17.3898 47.4493C18.2911 48.9902 18.0763 50.7956 16.9095 51.4834C15.7431 52.1708 14.0667 51.4793 13.1654 49.9396C12.2641 48.3991 12.4792 46.5937 13.6456 45.9064V45.9068Z" fill="#CCE1E4"/>
<path d="M19.893 44.0815C19.1368 45.1841 17.3519 45.2694 15.9063 44.2711C14.4603 43.2724 13.9014 41.5693 14.6573 40.4663C15.4135 39.3637 17.1984 39.2784 18.644 40.2767C20.0896 41.275 20.6489 42.9781 19.893 44.0811V44.0815Z" fill="#CCE1E4"/>
<path d="M12.1271 43.8733C11.9828 44.8749 11.3708 45.7887 10.393 46.2517C9.41514 46.7146 8.32327 46.6079 7.46146 46.083C6.5086 45.5028 5.89941 44.7447 5.07869 44.4135C4.25838 44.0824 1.96022 45.069 0.529515 42.4614C-0.480966 40.6196 0.446517 38.2915 2.34097 37.3943C3.78094 36.7125 4.92035 36.7886 5.75718 36.3927C6.59361 35.9969 7.25961 35.0653 8.69958 34.3836C10.594 33.4863 12.9744 34.2477 13.7488 36.2015C14.8451 38.9675 12.6247 40.1203 12.3579 40.9666C12.0912 41.8124 12.287 42.7667 12.1275 43.8733H12.1271Z" fill="#CCE1E4"/>
<path d="M11.0309 15.0622C12.3012 14.5952 13.827 15.5769 14.4386 17.2541C15.0498 18.9313 14.516 20.6691 13.2456 21.1357C11.9749 21.6019 10.4495 20.621 9.83787 18.9434C9.22666 17.2662 9.76051 15.5284 11.0313 15.0622H11.0309Z" fill="#CCE1E4"/>
<path d="M6.20325 12.3871C7.53243 12.5027 8.48691 14.0182 8.33582 15.7734C8.18433 17.5278 6.98448 18.8565 5.65531 18.7416C4.32653 18.6256 3.37205 17.1097 3.52314 15.3549C3.67463 13.6005 4.87448 12.2718 6.20325 12.3871Z" fill="#CCE1E4"/>
<path d="M16.5539 12.4466C17.7203 11.7584 19.3963 12.4494 20.298 13.9891C21.1993 15.53 20.9846 17.3354 19.8178 18.0232C18.6514 18.7106 16.9749 18.0191 16.0736 16.4794C15.1723 14.9389 15.3875 13.1335 16.5539 12.4462V12.4466Z" fill="#CCE1E4"/>
<path d="M22.8012 10.6213C22.045 11.7239 20.2601 11.8092 18.8145 10.8109C17.3685 9.81221 16.8097 8.10914 17.5655 7.00611C18.3218 5.90348 20.1066 5.81817 21.5522 6.81648C22.9979 7.81478 23.5571 9.51785 22.8012 10.6209V10.6213Z" fill="#CCE1E4"/>
<path d="M15.0353 10.4131C14.8911 11.4147 14.2791 12.3285 13.3012 12.7915C12.3234 13.2544 11.2315 13.1477 10.3697 12.6228C9.41683 12.0426 8.80764 11.2845 7.98693 10.9533C7.16662 10.6222 4.86846 11.6088 3.43775 9.0012C2.42727 7.15944 3.35475 4.83127 5.2492 3.93405C6.68918 3.25233 7.82858 3.32835 8.66541 2.9325C9.50184 2.53666 10.1678 1.60506 11.6078 0.923351C13.5023 0.0261269 15.8826 0.787495 16.657 2.74125C17.7533 5.50732 15.5329 6.66008 15.2662 7.50636C14.9995 8.35224 15.1953 9.30647 15.0357 10.4131H15.0353Z" fill="#CCE1E4"/>
</svg>
