<svg width="55" height="120" viewBox="0 0 55 120" fill="none" xmlns="http://www.w3.org/2000/svg">
<path d="M15.1303 6.18335C13.86 6.64989 12.3342 5.66914 11.7226 3.99363C11.1114 2.31812 11.6452 0.582016 12.9156 0.115877C14.1863 -0.349857 15.7117 0.630084 16.3233 2.306C16.9345 3.98151 16.4007 5.71761 15.1299 6.18335H15.1303Z" fill="#CCE1E4"/>
<path d="M19.958 8.85572C18.6288 8.7402 17.6743 7.22626 17.8254 5.47279C17.9769 3.72013 19.1767 2.3928 20.5059 2.50752C21.8347 2.62345 22.7892 4.13779 22.6381 5.89086C22.4866 7.64352 21.2867 8.97085 19.958 8.85572Z" fill="#CCE1E4"/>
<path d="M9.60736 8.79637C8.44096 9.48386 6.76488 8.79354 5.86318 7.25537C4.96189 5.71598 5.17663 3.91242 6.34344 3.22533C7.50985 2.53865 9.18633 3.22937 10.0876 4.76755C10.9889 6.30653 10.7738 8.11009 9.60736 8.79677V8.79637Z" fill="#CCE1E4"/>
<path d="M3.35997 10.6198C4.11622 9.51825 5.90108 9.43302 7.3467 10.4303C8.79272 11.428 9.35154 13.1294 8.5957 14.2313C7.83945 15.3329 6.05459 15.4181 4.60897 14.4208C3.16336 13.4235 2.60413 11.7221 3.35997 10.6202V10.6198Z" fill="#CCE1E4"/>
<path d="M11.1259 10.8277C11.2701 9.82717 11.8821 8.91429 12.86 8.45178C13.8378 7.98928 14.9297 8.09592 15.7915 8.62022C16.7444 9.19987 17.3536 9.95724 18.1743 10.2881C18.9946 10.6189 21.2928 9.63329 22.7235 12.2382C23.7339 14.0782 22.8065 16.404 20.912 17.3003C19.472 17.9814 18.3326 17.9054 17.4958 18.3009C16.6594 18.6963 15.9934 19.627 14.5534 20.308C12.6589 21.2043 10.2786 20.4437 9.50421 18.4919C8.40791 15.7286 10.6283 14.577 10.895 13.7316C11.1618 12.8866 10.9659 11.9333 11.1255 10.8277H11.1259Z" fill="#CCE1E4"/>
<path d="M12.2221 39.6101C10.9517 40.0766 9.42594 39.0959 8.81434 37.4204C8.20313 35.7449 8.73698 34.0088 10.0073 33.5426C11.2781 33.0769 12.8035 34.0568 13.4151 35.7328C14.0263 37.4083 13.4924 39.1444 12.2217 39.6101H12.2221Z" fill="#CCE1E4"/>
<path d="M17.0497 42.2825C15.7205 42.167 14.7661 40.653 14.9171 38.8995C15.0686 37.1469 16.2685 35.8196 17.5977 35.9343C18.9264 36.0502 19.8809 37.5645 19.7298 39.3176C19.5783 41.0703 18.3785 42.3976 17.0497 42.2825Z" fill="#CCE1E4"/>
<path d="M6.69912 42.2231C5.53271 42.9106 3.85664 42.2203 2.95494 40.6821C2.05365 39.1427 2.26839 37.3392 3.4352 36.6521C4.6016 35.9654 6.27808 36.6561 7.17938 38.1943C8.08067 39.7333 7.86552 41.5368 6.69912 42.2235V42.2231Z" fill="#CCE1E4"/>
<path d="M0.451733 44.0465C1.20798 42.945 2.99284 42.8598 4.43846 43.8571C5.88448 44.8548 6.4433 46.5562 5.68746 47.6581C4.93121 48.7596 3.14635 48.8448 1.70073 47.8475C0.255116 46.8502 -0.304113 45.1489 0.451733 44.0469V44.0465Z" fill="#CCE1E4"/>
<path d="M8.21766 44.2545C8.3619 43.2539 8.97391 42.341 9.95175 41.8785C10.9296 41.416 12.0215 41.5227 12.8833 42.047C13.8361 42.6266 14.4453 43.384 15.266 43.7148C16.0864 44.0456 18.3845 43.06 19.8152 45.665C20.8257 47.5049 19.8982 49.8308 18.0038 50.7271C16.5638 51.4081 15.4244 51.3322 14.5876 51.7276C13.7511 52.1231 13.0851 53.0537 11.6452 53.7348C9.7507 54.6311 7.37035 53.8705 6.59597 51.9187C5.49967 49.1554 7.72007 48.0038 7.98679 47.1583C8.25352 46.3133 8.0577 45.36 8.21725 44.2545H8.21766Z" fill="#CCE1E4"/>
<path d="M46.8774 72.0751C45.607 72.5416 44.0812 71.5609 43.4696 69.8854C42.8584 68.2098 43.3922 66.4737 44.6626 66.0076C45.9334 65.5419 47.4587 66.5218 48.0704 68.1977C48.6816 69.8732 48.1477 71.6093 46.877 72.0751H46.8774Z" fill="#CCE1E4"/>
<path d="M51.705 74.7475C50.3758 74.6319 49.4213 73.118 49.5724 71.3645C49.7239 69.6119 50.9238 68.2845 52.2529 68.3992C53.5817 68.5152 54.5362 70.0295 54.3851 71.7826C54.2336 73.5352 53.0338 74.8626 51.705 74.7475Z" fill="#CCE1E4"/>
<path d="M41.3544 74.6881C40.188 75.3756 38.5119 74.6853 37.6102 73.1471C36.7089 71.6077 36.9237 69.8041 38.0905 69.1171C39.2569 68.4304 40.9334 69.1211 41.8346 70.6593C42.7359 72.1983 42.5208 74.0018 41.3544 74.6885V74.6881Z" fill="#CCE1E4"/>
<path d="M35.107 76.5115C35.8632 75.41 37.6481 75.3247 39.0937 76.3221C40.5397 77.3198 41.0986 79.0211 40.3427 80.1231C39.5865 81.2246 37.8016 81.3098 36.356 80.3125C34.9104 79.3152 34.3512 77.6138 35.107 76.5119V76.5115Z" fill="#CCE1E4"/>
<path d="M42.8729 76.7194C43.0172 75.7189 43.6292 74.806 44.607 74.3435C45.5849 73.881 46.6767 73.9876 47.5385 74.5119C48.4914 75.0916 49.1006 75.849 49.9213 76.1798C50.7416 76.5106 53.0398 75.525 54.4705 78.13C55.481 79.9699 54.5535 82.2957 52.659 83.1921C51.2191 83.8731 50.0796 83.7971 49.2428 84.1926C48.4064 84.588 47.7404 85.5187 46.3004 86.1997C44.406 87.0961 42.0256 86.3355 41.2512 84.3837C40.1549 81.6204 42.3753 80.4687 42.6421 79.6233C42.9088 78.7783 42.713 77.825 42.8725 76.7194H42.8729Z" fill="#CCE1E4"/>
<path d="M43.9691 105.502C42.6988 105.968 41.173 104.988 40.5614 103.312C39.9502 101.637 40.484 99.9005 41.7544 99.4344C43.0251 98.9686 44.5505 99.9486 45.1621 101.624C45.7733 103.3 45.2395 105.036 43.9687 105.502H43.9691Z" fill="#CCE1E4"/>
<path d="M48.7967 108.174C47.4676 108.059 46.5131 106.545 46.6642 104.791C46.8157 103.039 48.0155 101.711 49.3447 101.826C50.6735 101.942 51.6279 103.456 51.4768 105.209C51.3254 106.962 50.1255 108.289 48.7967 108.174Z" fill="#CCE1E4"/>
<path d="M38.4461 108.115C37.2797 108.802 35.6037 108.112 34.702 106.574C33.8007 105.034 34.0154 103.231 35.1822 102.544C36.3486 101.857 38.0251 102.548 38.9264 104.086C39.8277 105.625 39.6125 107.429 38.4461 108.115V108.115Z" fill="#CCE1E4"/>
<path d="M32.1988 109.938C32.955 108.837 34.7399 108.751 36.1855 109.749C37.6315 110.747 38.1903 112.448 37.4345 113.55C36.6782 114.651 34.8934 114.737 33.4478 113.739C32.0021 112.742 31.4429 111.041 32.1988 109.939V109.938Z" fill="#CCE1E4"/>
<path d="M39.9647 110.146C40.1089 109.146 40.7209 108.233 41.6988 107.77C42.6766 107.308 43.7685 107.414 44.6303 107.939C45.5832 108.518 46.1924 109.276 47.0131 109.607C47.8334 109.937 50.1315 108.952 51.5622 111.557C52.5727 113.397 51.6452 115.722 49.7508 116.619C48.3108 117.3 47.1714 117.224 46.3346 117.619C45.4982 118.015 44.8322 118.945 43.3922 119.626C41.4977 120.523 39.1174 119.762 38.343 117.81C37.2467 115.047 39.4671 113.896 39.7338 113.05C40.0005 112.205 39.8047 111.252 39.9643 110.146H39.9647Z" fill="#CCE1E4"/>
</svg>
