<svg width="9" height="35" viewBox="0 0 9 35" fill="none" xmlns="http://www.w3.org/2000/svg">
<path fill-rule="evenodd" clip-rule="evenodd" d="M6.196 11.04C6.29815 9.96685 6.22964 8.89377 6.04397 7.86058C5.94628 7.31701 6.30775 6.79716 6.85133 6.69948C7.3949 6.60179 7.91475 6.96326 8.01244 7.50683C8.2252 8.69075 8.30895 9.94837 8.187 11.2295C8.13466 11.7793 7.64653 12.1826 7.09674 12.1302C6.54694 12.0779 6.14366 11.5898 6.196 11.04ZM8.06217 33.8915C7.75404 34.3498 7.13269 34.4716 6.67435 34.1635C6.25456 33.8812 5.70806 33.4215 5.12583 32.8345C4.7369 32.4424 4.73947 31.8093 5.13158 31.4203C5.52369 31.0314 6.15685 31.034 6.54578 31.4261C7.06786 31.9524 7.51257 32.317 7.79019 32.5037C8.24853 32.8118 8.3703 33.4332 8.06217 33.8915ZM6.02694 15.1497C6.48457 15.4588 6.60492 16.0805 6.29574 16.5381C5.95464 17.043 5.5637 17.5362 5.11905 18.0145C4.70692 18.4578 4.35957 18.8994 4.06907 19.3367C3.76349 19.7968 3.14283 19.922 2.68279 19.6164C2.22274 19.3108 2.09752 18.6902 2.4031 18.2301C2.75701 17.6973 3.17255 17.1708 3.65427 16.6527C4.02987 16.2487 4.35623 15.8363 4.6385 15.4185C4.94768 14.9608 5.56931 14.8405 6.02694 15.1497ZM5.77369 3.68307C5.28804 3.94605 4.68115 3.76553 4.41817 3.27988C4.1322 2.75177 3.8426 2.2919 3.57325 1.91527C3.25199 1.46604 3.35573 0.841428 3.80496 0.520166C4.2542 0.198905 4.8788 0.302646 5.20007 0.751878C5.52112 1.20083 5.85426 1.73176 6.17688 2.32754C6.43986 2.8132 6.25934 3.42009 5.77369 3.68307ZM3.09083 28.5094C2.58621 28.7338 1.99519 28.5067 1.77075 28.002C1.2424 26.8141 0.85859 25.4926 0.774862 24.0905C0.74194 23.5392 1.16217 23.0656 1.71347 23.0327C2.26478 22.9997 2.73838 23.42 2.77131 23.9713C2.83787 25.0859 3.14563 26.1718 3.59815 27.1893C3.82259 27.6939 3.59546 28.2849 3.09083 28.5094Z" fill="#CE2073"/>
</svg>
