<svg width="16" height="27" viewBox="0 0 16 27" fill="none" xmlns="http://www.w3.org/2000/svg">
<path d="M14.9361 22.715L5.72109 13.5L14.9361 4.28498C15.156 4.06509 15.3304 3.80405 15.4494 3.51677C15.5684 3.22948 15.6296 2.92156 15.6296 2.6106C15.6296 2.29964 15.5684 1.99172 15.4494 1.70443C15.3304 1.41715 15.156 1.15611 14.9361 0.936225C14.7162 0.716343 14.4552 0.541923 14.1679 0.422924C13.8806 0.303924 13.5727 0.242676 13.2617 0.242676C12.9508 0.242676 12.6428 0.303924 12.3555 0.422924C12.0683 0.541923 11.8072 0.716343 11.5873 0.936225L0.68609 11.8375C-0.240161 12.7637 -0.240161 14.26 0.68609 15.1862L11.5873 26.0875C11.8071 26.3076 12.068 26.4823 12.3554 26.6015C12.6427 26.7207 12.9507 26.782 13.2617 26.782C13.5728 26.782 13.8808 26.7207 14.1681 26.6015C14.4554 26.4823 14.7164 26.3076 14.9361 26.0875C15.8386 25.1612 15.8623 23.6412 14.9361 22.715Z" fill="#9ED0E0"/>
</svg>
