<svg width="27" height="20" viewBox="0 0 27 20" fill="none" xmlns="http://www.w3.org/2000/svg">
<path d="M10.8334 14.0003L17.7534 10.0003L10.8334 6.00033V14.0003ZM26.2467 3.56033C26.4201 4.18699 26.5401 5.02699 26.6201 6.09366C26.7134 7.16033 26.7534 8.08033 26.7534 8.88033L26.8334 10.0003C26.8334 12.9203 26.6201 15.067 26.2467 16.4403C25.9134 17.6403 25.1401 18.4137 23.9401 18.747C23.3134 18.9203 22.1667 19.0403 20.4067 19.1203C18.6734 19.2137 17.0867 19.2537 15.6201 19.2537L13.5001 19.3337C7.91341 19.3337 4.43341 19.1203 3.06008 18.747C1.86008 18.4137 1.08675 17.6403 0.753415 16.4403C0.580081 15.8137 0.460082 14.9737 0.380082 13.907C0.286748 12.8403 0.246748 11.9203 0.246748 11.1203L0.166748 10.0003C0.166748 7.08033 0.380081 4.93366 0.753415 3.56033C1.08675 2.36033 1.86008 1.58699 3.06008 1.25366C3.68675 1.08033 4.83342 0.960325 6.59342 0.880325C8.32675 0.786992 9.91341 0.746992 11.3801 0.746992L13.5001 0.666992C19.0867 0.666992 22.5667 0.880326 23.9401 1.25366C25.1401 1.58699 25.9134 2.36033 26.2467 3.56033Z" fill="#67B0C7"/>
</svg>
