<svg width="16" height="27" viewBox="0 0 16 27" fill="none" xmlns="http://www.w3.org/2000/svg">
<path d="M1.06391 22.715L10.2789 13.5L1.06391 4.28498C0.844029 4.06509 0.66961 3.80405 0.55061 3.51677C0.431611 3.22948 0.370361 2.92156 0.370361 2.6106C0.370361 2.29964 0.431611 1.99172 0.55061 1.70443C0.66961 1.41715 0.844029 1.15611 1.06391 0.936225C1.28379 0.716343 1.54483 0.541923 1.83212 0.422924C2.11941 0.303924 2.42733 0.242676 2.73829 0.242676C3.04925 0.242676 3.35716 0.303924 3.64445 0.422924C3.93174 0.541923 4.19278 0.716343 4.41266 0.936225L15.3139 11.8375C16.2402 12.7637 16.2402 14.26 15.3139 15.1862L4.41266 26.0875C4.19294 26.3076 3.93195 26.4823 3.64464 26.6015C3.35733 26.7207 3.04934 26.782 2.73829 26.782C2.42724 26.782 2.11924 26.7207 1.83193 26.6015C1.54462 26.4823 1.28363 26.3076 1.06391 26.0875C0.161411 25.1612 0.137661 23.6412 1.06391 22.715Z" fill="#9ED0E0"/>
</svg>
