<svg width="16" height="9" viewBox="0 0 16 9" fill="none" xmlns="http://www.w3.org/2000/svg">
<path d="M2.72052 0.506548L7.89385 5.67988L13.0672 0.506548C13.1906 0.383106 13.3372 0.285187 13.4985 0.21838C13.6597 0.151573 13.8326 0.117187 14.0072 0.117187C14.1818 0.117187 14.3546 0.151573 14.5159 0.21838C14.6772 0.285187 14.8237 0.383106 14.9472 0.506549C15.0706 0.629991 15.1685 0.776539 15.2354 0.937824C15.3022 1.09911 15.3365 1.27197 15.3365 1.44655C15.3365 1.62112 15.3022 1.79399 15.2354 1.95527C15.1685 2.11656 15.0706 2.26311 14.9472 2.38655L8.82719 8.50655C8.30719 9.02655 7.46719 9.02655 6.94719 8.50655L0.827188 2.38655C0.703584 2.2632 0.60552 2.11668 0.538612 1.95538C0.471703 1.79408 0.437263 1.62117 0.437263 1.44655C0.437263 1.27192 0.471703 1.09901 0.538612 0.937716C0.60552 0.776418 0.703584 0.6299 0.827188 0.506548C1.34719 -0.000118711 2.20052 -0.013452 2.72052 0.506548Z" fill="white"/>
</svg>
