<svg width="29" height="23" viewBox="0 0 29 23" fill="none" xmlns="http://www.w3.org/2000/svg">
<path d="M28.4468 2.99967C27.4201 3.46634 26.3135 3.77301 25.1668 3.91967C26.3401 3.21301 27.2468 2.09301 27.6735 0.746341C26.5668 1.41301 25.3401 1.87967 24.0468 2.14634C22.9935 0.999675 21.5135 0.333008 19.8335 0.333008C16.7001 0.333008 14.1401 2.89301 14.1401 6.05301C14.1401 6.50634 14.1935 6.94634 14.2868 7.35967C9.54013 7.11967 5.31347 4.83967 2.50013 1.38634C2.0068 2.22634 1.7268 3.21301 1.7268 4.25301C1.7268 6.23967 2.7268 7.99967 4.27347 8.99967C3.3268 8.99967 2.4468 8.73301 1.67347 8.33301V8.37301C1.67347 11.1463 3.6468 13.4663 6.26013 13.9863C5.4211 14.216 4.54026 14.2479 3.6868 14.0797C4.04894 15.2163 4.75818 16.2109 5.71482 16.9236C6.67146 17.6363 7.8274 18.0313 9.02013 18.053C6.99831 19.6536 4.49213 20.5188 1.91347 20.5063C1.46013 20.5063 1.0068 20.4797 0.553467 20.4263C3.0868 22.053 6.10013 22.9997 9.3268 22.9997C19.8335 22.9997 25.6068 14.2797 25.6068 6.71967C25.6068 6.46634 25.6068 6.22634 25.5935 5.97301C26.7135 5.17301 27.6735 4.15967 28.4468 2.99967Z" fill="#67B0C7"/>
</svg>
