<svg width="37" height="37" viewBox="0 0 37 37" fill="none" xmlns="http://www.w3.org/2000/svg">
<path d="M36.5001 0.333252V36.3333H0.5L36.5001 0.333252Z" fill="#67B0C7"/>
<g clip-path="url(#clip0_38213_1547)">
<path d="M27.0161 23.6057C27.0161 23.7752 26.9488 23.9379 26.8289 24.0578C26.709 24.1777 26.5464 24.245 26.3768 24.245H25.3113V25.3106C25.3113 25.4801 25.2439 25.6428 25.124 25.7627C25.0041 25.8826 24.8415 25.9499 24.672 25.9499C24.5024 25.9499 24.3398 25.8826 24.2199 25.7627C24.1 25.6428 24.0327 25.4801 24.0327 25.3106V24.245H22.9671C22.7976 24.245 22.6349 24.1777 22.515 24.0578C22.3952 23.9379 22.3278 23.7752 22.3278 23.6057C22.3278 23.4361 22.3952 23.2735 22.515 23.1536C22.6349 23.0337 22.7976 22.9663 22.9671 22.9663H24.0327V21.9008C24.0327 21.7312 24.1 21.5686 24.2199 21.4487C24.3398 21.3288 24.5024 21.2615 24.672 21.2615C24.8415 21.2615 25.0041 21.3288 25.124 21.4487C25.2439 21.5686 25.3113 21.7312 25.3113 21.9008V22.9663H26.3768C26.5464 22.9663 26.709 23.0337 26.8289 23.1536C26.9488 23.2735 27.0161 23.4361 27.0161 23.6057ZM31.0913 30.0251C31.0319 30.0847 30.9613 30.132 30.8836 30.1643C30.8059 30.1966 30.7226 30.2132 30.6384 30.2132C30.5543 30.2132 30.471 30.1966 30.3933 30.1643C30.3156 30.132 30.245 30.0847 30.1856 30.0251L27.6555 27.495C26.6669 28.2536 25.4268 28.6078 24.1867 28.4857C22.9466 28.3636 21.7994 27.7743 20.9778 26.8374C20.1561 25.9006 19.7216 24.6862 19.7624 23.4408C19.8032 22.1953 20.3161 21.012 21.1972 20.1309C22.0784 19.2497 23.2617 18.7367 24.5071 18.696C25.7525 18.6552 26.9668 19.0897 27.9037 19.9114C28.8405 20.733 29.4297 21.8803 29.5519 23.1204C29.674 24.3605 29.3198 25.6007 28.5612 26.5892L31.0939 29.1215C31.2133 29.2418 31.2801 29.4045 31.2796 29.5739C31.2791 29.7433 31.2114 29.9056 31.0913 30.0251ZM24.672 27.2286C25.3885 27.2286 26.0889 27.0161 26.6847 26.618C27.2805 26.2199 27.7448 25.6541 28.019 24.9921C28.2932 24.3301 28.365 23.6017 28.2252 22.8989C28.0854 22.1961 27.7404 21.5506 27.2337 21.0439C26.727 20.5372 26.0815 20.1922 25.3787 20.0524C24.676 19.9126 23.9476 19.9843 23.2856 20.2586C22.6236 20.5328 22.0578 20.9971 21.6597 21.5929C21.2616 22.1887 21.0492 22.8891 21.0492 23.6057C21.0503 24.5662 21.4323 25.487 22.1115 26.1662C22.7907 26.8454 23.7115 27.2275 24.672 27.2286Z" fill="#F5F5F5"/>
</g>
<defs>
<clipPath id="clip0_38213_1547">
<rect width="11.5198" height="11.5198" fill="white" transform="translate(19.7598 18.6934)"/>
</clipPath>
</defs>
</svg>
