<svg width="46" height="47" viewBox="0 0 46 47" fill="none" xmlns="http://www.w3.org/2000/svg">
<path d="M20.4995 1.3273C21.9624 0.160701 24.0376 0.160701 25.5005 1.3273V1.3273C26.5166 2.13761 27.8623 2.4053 29.1112 2.04551V2.04551C30.9091 1.52754 32.8264 2.32168 33.7314 3.95929V3.95929C34.3601 5.09676 35.501 5.85908 36.7925 6.00459V6.00459C38.6518 6.21409 40.1192 7.68148 40.3287 9.5408V9.5408C40.4742 10.8323 41.2365 11.9731 42.374 12.6018V12.6018C44.0116 13.5069 44.8057 15.4241 44.2877 17.2221V17.2221C43.928 18.4709 44.1956 19.8167 45.006 20.8328V20.8328C46.1726 22.2957 46.1726 24.3708 45.006 25.8337V25.8337C44.1956 26.8498 43.928 28.1956 44.2877 29.4444V29.4444C44.8057 31.2424 44.0116 33.1596 42.374 34.0647V34.0647C41.2365 34.6934 40.4742 35.8342 40.3287 37.1257V37.1257C40.1192 38.985 38.6518 40.4524 36.7925 40.6619V40.6619C35.501 40.8074 34.3601 41.5697 33.7314 42.7072V42.7072C32.8264 44.3448 30.9091 45.139 29.1112 44.621V44.621C27.8623 44.2612 26.5166 44.5289 25.5005 45.3392V45.3392C24.0376 46.5058 21.9624 46.5058 20.4995 45.3392V45.3392C19.4834 44.5289 18.1377 44.2612 16.8888 44.621V44.621C15.0909 45.139 13.1736 44.3448 12.2685 42.7072V42.7072C11.6399 41.5697 10.499 40.8074 9.20754 40.6619V40.6619C7.34822 40.4524 5.88084 38.985 5.67134 37.1257V37.1257C5.52582 35.8342 4.76351 34.6934 3.62604 34.0647V34.0647C1.98843 33.1596 1.19428 31.2424 1.71226 29.4444V29.4444C2.07204 28.1956 1.80436 26.8498 0.994049 25.8337V25.8337C-0.172551 24.3708 -0.172551 22.2957 0.994049 20.8328V20.8328C1.80436 19.8167 2.07204 18.4709 1.71226 17.2221V17.2221C1.19428 15.4241 1.98843 13.5069 3.62604 12.6018V12.6018C4.76351 11.9731 5.52582 10.8323 5.67134 9.5408V9.5408C5.88084 7.68148 7.34822 6.21409 9.20755 6.00459V6.00459C10.499 5.85908 11.6399 5.09676 12.2685 3.9593V3.9593C13.1736 2.32168 15.0909 1.52754 16.8888 2.04551V2.04551C18.1377 2.4053 19.4834 2.13761 20.4995 1.3273V1.3273Z" fill="#CE2073"/>
</svg>
