<svg width="740" height="78" viewBox="0 0 740 78" fill="none" xmlns="http://www.w3.org/2000/svg">
<mask id="path-1-outside-1_652_926" maskUnits="userSpaceOnUse" x="-2" y="-2" width="744" height="82" fill="black">
<rect fill="white" x="-2" y="-2" width="744" height="82"/>
<path d="M0.854297 38.8C0.854297 33.8 1.78763 29.0667 3.6543 24.6C5.58763 20.1333 8.2543 16.1667 11.6543 12.7C15.0543 9.23333 18.9876 6.53333 23.4543 4.59999C27.921 2.6 32.721 1.6 37.8543 1.6C42.921 1.6 47.6876 2.6 52.1543 4.59999C56.621 6.53333 60.5876 9.23333 64.0543 12.7C67.521 16.1667 70.221 20.1333 72.1543 24.6C74.0876 29.0667 75.0543 33.8 75.0543 38.8C75.0543 43.9333 74.0876 48.7333 72.1543 53.2C70.221 57.6667 67.521 61.6 64.0543 65C60.6543 68.4 56.6876 71.0667 52.1543 73C47.6876 74.8667 42.921 75.8 37.8543 75.8C32.721 75.8 27.921 74.8667 23.4543 73C18.9876 71.1333 15.0543 68.5333 11.6543 65.2C8.2543 61.8 5.58763 57.8667 3.6543 53.4C1.78763 48.8667 0.854297 44 0.854297 38.8ZM11.8543 38.8C11.8543 42.5333 12.521 46.0333 13.8543 49.3C15.2543 52.5 17.1543 55.3333 19.5543 57.8C21.9543 60.2 24.721 62.1 27.8543 63.5C31.0543 64.8333 34.4876 65.5 38.1543 65.5C41.7543 65.5 45.121 64.8333 48.2543 63.5C51.3876 62.1 54.121 60.2 56.4543 57.8C58.8543 55.3333 60.721 52.5 62.0543 49.3C63.3876 46.0333 64.0543 42.5333 64.0543 38.8C64.0543 35.0667 63.3543 31.6 61.9543 28.4C60.621 25.1333 58.7543 22.2667 56.3543 19.8C54.021 17.3333 51.2543 15.4 48.0543 14C44.921 12.6 41.5543 11.9 37.9543 11.9C34.221 11.9 30.7876 12.6 27.6543 14C24.521 15.4 21.7543 17.3333 19.3543 19.8C16.9543 22.2667 15.0876 25.1333 13.7543 28.4C12.4876 31.6667 11.8543 35.1333 11.8543 38.8ZM182.299 77.5L126.399 22L129.499 23L129.799 75H118.999V0.0999987H119.499L174.699 55.7L172.199 55L171.999 2.4H182.599V77.5H182.299ZM226.581 38.8C226.581 33.8 227.514 29.0667 229.381 24.6C231.314 20.1333 233.981 16.1667 237.381 12.7C240.781 9.23333 244.714 6.53333 249.181 4.59999C253.648 2.6 258.448 1.6 263.581 1.6C268.648 1.6 273.414 2.6 277.881 4.59999C282.348 6.53333 286.314 9.23333 289.781 12.7C293.248 16.1667 295.948 20.1333 297.881 24.6C299.814 29.0667 300.781 33.8 300.781 38.8C300.781 43.9333 299.814 48.7333 297.881 53.2C295.948 57.6667 293.248 61.6 289.781 65C286.381 68.4 282.414 71.0667 277.881 73C273.414 74.8667 268.648 75.8 263.581 75.8C258.448 75.8 253.648 74.8667 249.181 73C244.714 71.1333 240.781 68.5333 237.381 65.2C233.981 61.8 231.314 57.8667 229.381 53.4C227.514 48.8667 226.581 44 226.581 38.8ZM237.581 38.8C237.581 42.5333 238.248 46.0333 239.581 49.3C240.981 52.5 242.881 55.3333 245.281 57.8C247.681 60.2 250.448 62.1 253.581 63.5C256.781 64.8333 260.214 65.5 263.881 65.5C267.481 65.5 270.848 64.8333 273.981 63.5C277.114 62.1 279.848 60.2 282.181 57.8C284.581 55.3333 286.448 52.5 287.781 49.3C289.114 46.0333 289.781 42.5333 289.781 38.8C289.781 35.0667 289.081 31.6 287.681 28.4C286.348 25.1333 284.481 22.2667 282.081 19.8C279.748 17.3333 276.981 15.4 273.781 14C270.648 12.6 267.281 11.9 263.681 11.9C259.948 11.9 256.514 12.6 253.381 14C250.248 15.4 247.481 17.3333 245.081 19.8C242.681 22.2667 240.814 25.1333 239.481 28.4C238.214 31.6667 237.581 35.1333 237.581 38.8ZM344.725 75V-5.96046e-06H344.825L383.425 54.7L378.825 53.7L417.225 -5.96046e-06H417.425V75H406.825V24.1L407.525 29.6L380.725 67.5H380.525L353.225 29.6L355.025 24.6V75H344.725ZM465.792 2.4H476.492V75H465.792V2.4ZM578.346 69.5C577.28 70.2333 575.68 71.1333 573.546 72.2C571.48 73.2 569.013 74.0667 566.146 74.8C563.346 75.5333 560.246 75.8667 556.846 75.8C551.18 75.7333 546.08 74.7333 541.546 72.8C537.08 70.8667 533.28 68.2333 530.146 64.9C527.013 61.5 524.58 57.6333 522.846 53.3C521.18 48.9 520.346 44.2333 520.346 39.3C520.346 33.8333 521.213 28.8333 522.946 24.3C524.68 19.7 527.146 15.7 530.346 12.3C533.613 8.9 537.413 6.26666 541.746 4.4C546.146 2.53333 550.946 1.6 556.146 1.6C560.613 1.6 564.646 2.2 568.246 3.4C571.846 4.6 574.88 6 577.346 7.6L573.146 17.6C571.213 16.2667 568.813 15 565.946 13.8C563.146 12.5333 560.013 11.9 556.546 11.9C553.146 11.9 549.913 12.6 546.846 14C543.846 15.3333 541.18 17.2333 538.846 19.7C536.58 22.1 534.78 24.9333 533.446 28.2C532.113 31.4 531.446 34.9 531.446 38.7C531.446 42.5667 532.046 46.1333 533.246 49.4C534.446 52.6667 536.146 55.5 538.346 57.9C540.613 60.3 543.313 62.1667 546.446 63.5C549.58 64.8333 553.113 65.5 557.046 65.5C560.78 65.5 564.046 64.9333 566.846 63.8C569.713 62.6667 572.046 61.3667 573.846 59.9L578.346 69.5ZM680.578 2.4V75H669.878V43.7H633.078V75H622.378V2.4H633.078V33.5H669.878V2.4H680.578ZM728.991 2.4H739.691V75H728.991V2.4Z"/>
</mask>
<path d="M3.6543 24.6L1.81885 23.8056L1.81383 23.8172L1.80896 23.8288L3.6543 24.6ZM11.6543 12.7L10.2264 11.2996L11.6543 12.7ZM23.4543 4.59999L24.2487 6.43544L24.2602 6.43047L24.2716 6.42536L23.4543 4.59999ZM52.1543 4.59999L51.337 6.42536L51.3484 6.43047L51.3599 6.43544L52.1543 4.59999ZM64.0543 12.7L62.6401 14.1142V14.1142L64.0543 12.7ZM72.1543 24.6L70.3189 25.3944L72.1543 24.6ZM72.1543 53.2L73.9897 53.9944L72.1543 53.2ZM64.0543 65L62.6539 63.5721L62.6469 63.5789L62.6401 63.5858L64.0543 65ZM52.1543 73L52.9255 74.8453L52.9322 74.8425L52.9389 74.8397L52.1543 73ZM23.4543 73L24.2255 71.1547L23.4543 73ZM11.6543 65.2L10.2401 66.6142L10.2471 66.6212L10.2542 66.6281L11.6543 65.2ZM3.6543 53.4L1.80494 54.1615L1.81175 54.178L1.81885 54.1944L3.6543 53.4ZM13.8543 49.3L12.0026 50.0558L12.012 50.0788L12.022 50.1016L13.8543 49.3ZM19.5543 57.8L18.1208 59.1947L18.1304 59.2045L18.1401 59.2142L19.5543 57.8ZM27.8543 63.5L27.0384 65.326L27.0616 65.3364L27.0851 65.3462L27.8543 63.5ZM48.2543 63.5L49.0374 65.3403L49.0539 65.3333L49.0702 65.326L48.2543 63.5ZM56.4543 57.8L55.0208 56.4053L55.0203 56.4058L56.4543 57.8ZM62.0543 49.3L63.9005 50.0692L63.9033 50.0625L63.906 50.0558L62.0543 49.3ZM61.9543 28.4L60.1026 29.1558L60.112 29.1788L60.122 29.2016L61.9543 28.4ZM56.3543 19.8L54.9014 21.1744L54.911 21.1846L54.9208 21.1947L56.3543 19.8ZM48.0543 14L47.2384 15.826L47.2455 15.8292L47.2527 15.8323L48.0543 14ZM27.6543 14L28.4702 15.826H28.4702L27.6543 14ZM19.3543 19.8L17.9208 18.4053L19.3543 19.8ZM13.7543 28.4L11.9026 27.6442L11.8959 27.6605L11.8896 27.6769L13.7543 28.4ZM2.8543 38.8C2.8543 34.0559 3.73843 29.5855 5.49963 25.3712L1.80896 23.8288C-0.163169 28.5478 -1.1457 33.5441 -1.1457 38.8H2.8543ZM5.48974 25.3944C7.3258 21.1525 9.85448 17.3914 13.0822 14.1004L10.2264 11.2996C6.65411 14.9419 3.84947 19.1141 1.81885 23.8056L5.48974 25.3944ZM13.0822 14.1004C16.3007 10.8188 20.0188 8.26632 24.2487 6.43544L22.6599 2.76455C17.9565 4.80034 13.8079 7.64788 10.2264 11.2996L13.0822 14.1004ZM24.2716 6.42536C28.4687 4.5461 32.9886 3.6 37.8543 3.6V-0.400002C32.4533 -0.400002 27.3733 0.653891 22.637 2.77462L24.2716 6.42536ZM37.8543 3.6C42.6495 3.6 47.1365 4.54458 51.337 6.42536L52.9716 2.77462C48.2387 0.655414 43.1925 -0.400002 37.8543 -0.400002V3.6ZM51.3599 6.43544C55.5935 8.26792 59.3503 10.8244 62.6401 14.1142L65.4685 11.2858C61.825 7.64225 57.6484 4.79874 52.9487 2.76455L51.3599 6.43544ZM62.6401 14.1142C65.9299 17.404 68.4864 21.1608 70.3189 25.3944L73.9897 23.8056C71.9556 19.1059 69.1121 14.9293 65.4685 11.2858L62.6401 14.1142ZM70.3189 25.3944C72.1406 29.6034 73.0543 34.0656 73.0543 38.8H77.0543C77.0543 33.5344 76.0346 28.5299 73.9897 23.8056L70.3189 25.3944ZM73.0543 38.8C73.0543 43.6753 72.1377 48.2033 70.3189 52.4056L73.9897 53.9944C76.0375 49.2634 77.0543 44.1914 77.0543 38.8H73.0543ZM70.3189 52.4056C68.488 56.6355 65.9355 60.3536 62.6539 63.5721L65.4547 66.4279C69.1064 62.8464 71.954 58.6978 73.9897 53.9944L70.3189 52.4056ZM62.6401 63.5858C59.4254 66.8005 55.6739 69.3247 51.3697 71.1603L52.9389 74.8397C57.7014 72.8086 61.8832 69.9995 65.4685 66.4142L62.6401 63.5858ZM51.3831 71.1547C47.1721 72.9145 42.6688 73.8 37.8543 73.8V77.8C43.1732 77.8 48.2032 76.8188 52.9255 74.8453L51.3831 71.1547ZM37.8543 73.8C32.9695 73.8 28.4333 72.9132 24.2255 71.1547L22.6831 74.8453C27.4086 76.8202 32.4724 77.8 37.8543 77.8V73.8ZM24.2255 71.1547C19.989 69.3842 16.2701 66.9245 13.0544 63.7719L10.2542 66.6281C13.8385 70.1422 17.9862 72.8825 22.6831 74.8453L24.2255 71.1547ZM13.0685 63.7858C9.84893 60.5662 7.32422 56.8438 5.48974 52.6056L1.81885 54.1944C3.85104 58.8895 6.65966 63.0338 10.2401 66.6142L13.0685 63.7858ZM5.50365 52.6385C3.74239 48.3611 2.8543 43.7548 2.8543 38.8H-1.1457C-1.1457 44.2452 -0.16713 49.3722 1.80494 54.1615L5.50365 52.6385ZM9.8543 38.8C9.8543 42.7772 10.5657 46.5354 12.0026 50.0558L15.706 48.5442C14.4762 45.5312 13.8543 42.2894 13.8543 38.8H9.8543ZM12.022 50.1016C13.5168 53.5183 15.5508 56.5533 18.1208 59.1947L20.9878 56.4053C18.7578 54.1134 16.9918 51.4817 15.6866 48.4984L12.022 50.1016ZM18.1401 59.2142C20.7147 61.7888 23.6847 63.8276 27.0384 65.326L28.6702 61.674C25.7572 60.3724 23.1939 58.6112 20.9685 56.3858L18.1401 59.2142ZM27.0851 65.3462C30.5427 66.7868 34.239 67.5 38.1543 67.5V63.5C34.7362 63.5 31.5659 62.8798 28.6235 61.6538L27.0851 65.3462ZM38.1543 67.5C42.0078 67.5 45.6424 66.785 49.0374 65.3403L47.4712 61.6597C44.5995 62.8817 41.5008 63.5 38.1543 63.5V67.5ZM49.0702 65.326C52.4291 63.8252 55.3737 61.7806 57.8883 59.1942L55.0203 56.4058C52.8683 58.6194 50.3462 60.3748 47.4384 61.674L49.0702 65.326ZM57.8878 59.1947C60.4648 56.5461 62.4709 53.5001 63.9005 50.0692L60.2081 48.5308C58.971 51.4999 57.2438 54.1206 55.0208 56.4053L57.8878 59.1947ZM63.906 50.0558C65.3429 46.5354 66.0543 42.7772 66.0543 38.8H62.0543C62.0543 42.2894 61.4324 45.5312 60.2026 48.5442L63.906 50.0558ZM66.0543 38.8C66.0543 34.81 65.3047 31.0682 63.7866 27.5984L60.122 29.2016C61.4039 32.1318 62.0543 35.3233 62.0543 38.8H66.0543ZM63.806 27.6442C62.3781 24.1458 60.3715 21.0608 57.7878 18.4053L54.9208 21.1947C57.1371 23.4726 58.8639 26.1209 60.1026 29.1558L63.806 27.6442ZM57.8072 18.4256C55.2844 15.7585 52.2943 13.672 48.8559 12.1677L47.2527 15.8323C50.2143 17.128 52.7576 18.9081 54.9014 21.1744L57.8072 18.4256ZM48.8702 12.174C45.4676 10.6537 41.8214 9.9 37.9543 9.9V13.9C41.2872 13.9 44.3743 14.5463 47.2384 15.826L48.8702 12.174ZM37.9543 9.9C33.9648 9.9 30.2503 10.6495 26.8384 12.174L28.4702 15.826C31.3249 14.5505 34.4772 13.9 37.9543 13.9V9.9ZM26.8384 12.174C23.4731 13.6776 20.497 15.7576 17.9208 18.4053L20.7878 21.1947C23.0116 18.9091 25.5688 17.1224 28.4702 15.826L26.8384 12.174ZM17.9208 18.4053C15.3371 21.0608 13.3305 24.1458 11.9026 27.6442L15.606 29.1558C16.8447 26.1209 18.5715 23.4726 20.7878 21.1947L17.9208 18.4053ZM11.8896 27.6769C10.5294 31.1848 9.8543 34.8977 9.8543 38.8H13.8543C13.8543 35.369 14.4459 32.1485 15.619 29.1231L11.8896 27.6769ZM182.299 77.5L180.89 78.9193L181.475 79.5H182.299V77.5ZM126.399 22L127.013 20.0966L124.99 23.4193L126.399 22ZM129.499 23L131.499 22.9885L131.49 21.541L130.113 21.0966L129.499 23ZM129.799 75V77H131.81L131.799 74.9885L129.799 75ZM118.999 75H116.999V77H118.999V75ZM118.999 0.0999985V-1.9H116.999V0.0999985H118.999ZM119.499 0.0999985L120.918 -1.3091L120.331 -1.9H119.499V0.0999985ZM174.699 55.7L174.16 57.6259L181.458 59.6695L176.118 54.2909L174.699 55.7ZM172.199 55L170.199 55.0076L170.205 56.5185L171.66 56.9259L172.199 55ZM171.999 2.4V0.399999H169.991L169.999 2.4076L171.999 2.4ZM182.599 2.4H184.599V0.399999H182.599V2.4ZM182.599 77.5V79.5H184.599V77.5H182.599ZM183.708 76.0807L127.808 20.5807L124.99 23.4193L180.89 78.9193L183.708 76.0807ZM125.785 23.9034L128.885 24.9034L130.113 21.0966L127.013 20.0966L125.785 23.9034ZM127.499 23.0115L127.799 75.0115L131.799 74.9885L131.499 22.9885L127.499 23.0115ZM129.799 73H118.999V77H129.799V73ZM120.999 75V0.0999985H116.999V75H120.999ZM118.999 2.1H119.499V-1.9H118.999V2.1ZM118.08 1.5091L173.28 57.1091L176.118 54.2909L120.918 -1.3091L118.08 1.5091ZM175.238 53.7741L172.738 53.0741L171.66 56.9259L174.16 57.6259L175.238 53.7741ZM174.199 54.9924L173.999 2.39239L169.999 2.4076L170.199 55.0076L174.199 54.9924ZM171.999 4.4H182.599V0.399999H171.999V4.4ZM180.599 2.4V77.5H184.599V2.4H180.599ZM182.599 75.5H182.299V79.5H182.599V75.5ZM229.381 24.6L227.545 23.8056L227.54 23.8172L227.536 23.8288L229.381 24.6ZM237.381 12.7L235.953 11.2996L237.381 12.7ZM249.181 4.59999L249.975 6.43544L249.987 6.43047L249.998 6.42536L249.181 4.59999ZM277.881 4.59999L277.064 6.42536L277.075 6.43047L277.086 6.43544L277.881 4.59999ZM289.781 12.7L288.367 14.1142V14.1142L289.781 12.7ZM297.881 24.6L296.045 25.3944L297.881 24.6ZM297.881 53.2L299.716 53.9944L297.881 53.2ZM289.781 65L288.38 63.5721L288.374 63.5789L288.367 63.5858L289.781 65ZM277.881 73L278.652 74.8453L278.659 74.8425L278.665 74.8397L277.881 73ZM249.181 73L249.952 71.1547L249.181 73ZM237.381 65.2L235.967 66.6142L235.974 66.6212L235.981 66.6281L237.381 65.2ZM229.381 53.4L227.532 54.1615L227.538 54.178L227.545 54.1944L229.381 53.4ZM239.581 49.3L237.729 50.0558L237.739 50.0788L237.749 50.1016L239.581 49.3ZM245.281 57.8L243.847 59.1947L243.857 59.2045L243.867 59.2142L245.281 57.8ZM253.581 63.5L252.765 65.326L252.788 65.3364L252.812 65.3462L253.581 63.5ZM273.981 63.5L274.764 65.3403L274.78 65.3333L274.797 65.326L273.981 63.5ZM282.181 57.8L280.747 56.4053L280.747 56.4058L282.181 57.8ZM287.781 49.3L289.627 50.0692L289.63 50.0625L289.633 50.0558L287.781 49.3ZM287.681 28.4L285.829 29.1558L285.839 29.1788L285.849 29.2016L287.681 28.4ZM282.081 19.8L280.628 21.1744L280.638 21.1846L280.647 21.1947L282.081 19.8ZM273.781 14L272.965 15.826L272.972 15.8292L272.979 15.8323L273.781 14ZM253.381 14L254.197 15.826L253.381 14ZM245.081 19.8L243.647 18.4053L245.081 19.8ZM239.481 28.4L237.629 27.6442L237.623 27.6605L237.616 27.6769L239.481 28.4ZM228.581 38.8C228.581 34.0559 229.465 29.5855 231.226 25.3712L227.536 23.8288C225.563 28.5478 224.581 33.5441 224.581 38.8H228.581ZM231.216 25.3944C233.052 21.1525 235.581 17.3914 238.809 14.1004L235.953 11.2996C232.381 14.9419 229.576 19.1141 227.545 23.8056L231.216 25.3944ZM238.809 14.1004C242.027 10.8188 245.745 8.26632 249.975 6.43544L248.386 2.76455C243.683 4.80034 239.534 7.64788 235.953 11.2996L238.809 14.1004ZM249.998 6.42536C254.195 4.5461 258.715 3.6 263.581 3.6V-0.400002C258.18 -0.400002 253.1 0.653891 248.364 2.77462L249.998 6.42536ZM263.581 3.6C268.376 3.6 272.863 4.54458 277.064 6.42536L278.698 2.77462C273.965 0.655414 268.919 -0.400002 263.581 -0.400002V3.6ZM277.086 6.43544C281.32 8.26792 285.077 10.8244 288.367 14.1142L291.195 11.2858C287.552 7.64225 283.375 4.79874 278.675 2.76455L277.086 6.43544ZM288.367 14.1142C291.656 17.404 294.213 21.1608 296.045 25.3944L299.716 23.8056C297.682 19.1059 294.839 14.9293 291.195 11.2858L288.367 14.1142ZM296.045 25.3944C297.867 29.6034 298.781 34.0656 298.781 38.8H302.781C302.781 33.5344 301.761 28.5299 299.716 23.8056L296.045 25.3944ZM298.781 38.8C298.781 43.6753 297.864 48.2033 296.045 52.4056L299.716 53.9944C301.764 49.2634 302.781 44.1914 302.781 38.8H298.781ZM296.045 52.4056C294.215 56.6355 291.662 60.3536 288.38 63.5721L291.181 66.4279C294.833 62.8464 297.681 58.6978 299.716 53.9944L296.045 52.4056ZM288.367 63.5858C285.152 66.8005 281.4 69.3247 277.096 71.1603L278.665 74.8397C283.428 72.8086 287.61 69.9995 291.195 66.4142L288.367 63.5858ZM277.11 71.1547C272.899 72.9145 268.395 73.8 263.581 73.8V77.8C268.9 77.8 273.93 76.8188 278.652 74.8453L277.11 71.1547ZM263.581 73.8C258.696 73.8 254.16 72.9132 249.952 71.1547L248.41 74.8453C253.135 76.8202 258.199 77.8 263.581 77.8V73.8ZM249.952 71.1547C245.716 69.3842 241.997 66.9245 238.781 63.7719L235.981 66.6281C239.565 70.1422 243.713 72.8825 248.41 74.8453L249.952 71.1547ZM238.795 63.7858C235.576 60.5662 233.051 56.8438 231.216 52.6056L227.545 54.1944C229.578 58.8895 232.386 63.0338 235.967 66.6142L238.795 63.7858ZM231.23 52.6385C229.469 48.3611 228.581 43.7548 228.581 38.8H224.581C224.581 44.2452 225.559 49.3722 227.532 54.1615L231.23 52.6385ZM235.581 38.8C235.581 42.7772 236.292 46.5354 237.729 50.0558L241.433 48.5442C240.203 45.5312 239.581 42.2894 239.581 38.8H235.581ZM237.749 50.1016C239.243 53.5183 241.277 56.5533 243.847 59.1947L246.714 56.4053C244.484 54.1134 242.718 51.4817 241.413 48.4984L237.749 50.1016ZM243.867 59.2142C246.441 61.7888 249.411 63.8276 252.765 65.326L254.397 61.674C251.484 60.3724 248.92 58.6112 246.695 56.3858L243.867 59.2142ZM252.812 65.3462C256.269 66.7868 259.966 67.5 263.881 67.5V63.5C260.463 63.5 257.292 62.8798 254.35 61.6538L252.812 65.3462ZM263.881 67.5C267.734 67.5 271.369 66.785 274.764 65.3403L273.198 61.6597C270.326 62.8817 267.227 63.5 263.881 63.5V67.5ZM274.797 65.326C278.156 63.8252 281.1 61.7806 283.615 59.1942L280.747 56.4058C278.595 58.6194 276.073 60.3748 273.165 61.674L274.797 65.326ZM283.614 59.1947C286.191 56.5461 288.197 53.5001 289.627 50.0692L285.935 48.5308C284.698 51.4999 282.97 54.1206 280.747 56.4053L283.614 59.1947ZM289.633 50.0558C291.069 46.5354 291.781 42.7772 291.781 38.8H287.781C287.781 42.2894 287.159 45.5312 285.929 48.5442L289.633 50.0558ZM291.781 38.8C291.781 34.81 291.031 31.0682 289.513 27.5984L285.849 29.2016C287.13 32.1318 287.781 35.3233 287.781 38.8H291.781ZM289.533 27.6442C288.105 24.1458 286.098 21.0608 283.514 18.4053L280.647 21.1947C282.864 23.4726 284.59 26.1209 285.829 29.1558L289.533 27.6442ZM283.534 18.4256C281.011 15.7585 278.021 13.672 274.582 12.1677L272.979 15.8323C275.941 17.128 278.484 18.9081 280.628 21.1744L283.534 18.4256ZM274.597 12.174C271.194 10.6537 267.548 9.9 263.681 9.9V13.9C267.014 13.9 270.101 14.5463 272.965 15.826L274.597 12.174ZM263.681 9.9C259.691 9.9 255.977 10.6495 252.565 12.174L254.197 15.826C257.052 14.5505 260.204 13.9 263.681 13.9V9.9ZM252.565 12.174C249.2 13.6776 246.224 15.7576 243.647 18.4053L246.514 21.1947C248.738 18.9091 251.295 17.1224 254.197 15.826L252.565 12.174ZM243.647 18.4053C241.064 21.0608 239.057 24.1458 237.629 27.6442L241.333 29.1558C242.571 26.1209 244.298 23.4726 246.514 21.1947L243.647 18.4053ZM237.616 27.6769C236.256 31.1848 235.581 34.8977 235.581 38.8H239.581C239.581 35.369 240.172 32.1485 241.346 29.1231L237.616 27.6769ZM344.725 75H342.725V77H344.725V75ZM344.725 -5.72205e-06V-2.00001H342.725V-5.72205e-06H344.725ZM344.825 -5.72205e-06L346.46 -1.15314L345.862 -2.00001H344.825V-5.72205e-06ZM383.425 54.7L383.001 56.6544L388.023 57.7461L385.06 53.5469L383.425 54.7ZM378.825 53.7L377.199 52.5367L375.431 55.0088L378.401 55.6544L378.825 53.7ZM417.225 -5.72205e-06V-2.00001H416.197L415.599 -1.16334L417.225 -5.72205e-06ZM417.425 -5.72205e-06H419.425V-2.00001H417.425V-5.72205e-06ZM417.425 75V77H419.425V75H417.425ZM406.825 75H404.825V77H406.825V75ZM406.825 24.1L408.809 23.8475L404.825 24.1H406.825ZM407.525 29.6L409.158 30.7547L409.608 30.1194L409.509 29.3475L407.525 29.6ZM380.725 67.5V69.5H381.761L382.358 68.6547L380.725 67.5ZM380.525 67.5L378.903 68.6689L379.501 69.5H380.525V67.5ZM353.225 29.6L351.344 28.9226L350.987 29.914L351.603 30.7689L353.225 29.6ZM355.025 24.6H357.025L353.144 23.9226L355.025 24.6ZM355.025 75V77H357.025V75H355.025ZM346.725 75V-5.72205e-06H342.725V75H346.725ZM344.725 1.99999H344.825V-2.00001H344.725V1.99999ZM343.191 1.15313L381.791 55.8531L385.06 53.5469L346.46 -1.15314L343.191 1.15313ZM383.85 52.7456L379.25 51.7456L378.401 55.6544L383.001 56.6544L383.85 52.7456ZM380.452 54.8633L418.852 1.16333L415.599 -1.16334L377.199 52.5367L380.452 54.8633ZM417.225 1.99999H417.425V-2.00001H417.225V1.99999ZM415.425 -5.72205e-06V75H419.425V-5.72205e-06H415.425ZM417.425 73H406.825V77H417.425V73ZM408.825 75V24.1H404.825V75H408.825ZM404.841 24.3525L405.541 29.8525L409.509 29.3475L408.809 23.8475L404.841 24.3525ZM405.892 28.4453L379.092 66.3453L382.358 68.6547L409.158 30.7547L405.892 28.4453ZM380.725 65.5H380.525V69.5H380.725V65.5ZM382.148 66.3311L354.848 28.431L351.603 30.7689L378.903 68.6689L382.148 66.3311ZM355.107 30.2774L356.907 25.2774L353.144 23.9226L351.344 28.9226L355.107 30.2774ZM353.025 24.6V75H357.025V24.6H353.025ZM355.025 73H344.725V77H355.025V73ZM465.792 2.4V0.399999H463.792V2.4H465.792ZM476.492 2.4H478.492V0.399999H476.492V2.4ZM476.492 75V77H478.492V75H476.492ZM465.792 75H463.792V77H465.792V75ZM465.792 4.4H476.492V0.399999H465.792V4.4ZM474.492 2.4V75H478.492V2.4H474.492ZM476.492 73H465.792V77H476.492V73ZM467.792 75V2.4H463.792V75H467.792ZM578.346 69.5L579.48 71.1481L580.877 70.1871L580.157 68.6511L578.346 69.5ZM573.547 72.2L574.418 74.0003L574.429 73.9947L574.441 73.9889L573.547 72.2ZM566.146 74.8L565.651 72.8624L565.64 72.8653L566.146 74.8ZM556.846 75.8L556.886 73.8004L556.878 73.8002L556.87 73.8001L556.846 75.8ZM541.547 72.8L540.752 74.6355L540.762 74.6397L541.547 72.8ZM530.146 64.9L528.676 66.2554L528.682 66.2626L528.689 66.2698L530.146 64.9ZM522.846 53.3L520.976 54.0085L520.983 54.0257L520.99 54.0428L522.846 53.3ZM522.946 24.3L524.815 25.0143L524.818 25.0052L522.946 24.3ZM530.346 12.3L528.904 10.9143L528.897 10.9218L528.89 10.9293L530.346 12.3ZM541.746 4.4L540.965 2.55881L540.955 2.56317L541.746 4.4ZM568.246 3.4L567.614 5.29737L568.246 3.4ZM577.346 7.6L579.19 8.37446L579.838 6.83231L578.435 5.92208L577.346 7.6ZM573.146 17.6L572.011 19.2464L574.037 20.6439L574.99 18.3745L573.146 17.6ZM565.946 13.8L565.122 15.6222L565.148 15.6339L565.174 15.6449L565.946 13.8ZM546.846 14L547.659 15.8276L547.668 15.8235L547.677 15.8194L546.846 14ZM538.846 19.7L537.394 18.3256L537.392 18.3267L538.846 19.7ZM533.446 28.2L535.293 28.9692L535.295 28.9625L535.298 28.9558L533.446 28.2ZM533.246 49.4L531.369 50.0896L533.246 49.4ZM538.346 57.9L536.872 59.2514L536.882 59.2624L536.892 59.2732L538.346 57.9ZM546.446 63.5L545.663 65.3403L546.446 63.5ZM566.846 63.8L566.111 61.9401L566.104 61.9431L566.096 61.9461L566.846 63.8ZM573.846 59.9L575.657 59.0511L574.57 56.7308L572.583 58.3495L573.846 59.9ZM577.213 67.8519C576.262 68.5063 574.759 69.3576 572.652 70.4111L574.441 73.9889C576.6 72.9091 578.298 71.9603 579.48 71.1481L577.213 67.8519ZM572.675 70.3997C570.758 71.3276 568.423 72.1532 565.651 72.8624L566.642 76.7376C569.603 75.9801 572.202 75.0724 574.418 74.0003L572.675 70.3997ZM565.64 72.8653C563.046 73.5446 560.133 73.8641 556.886 73.8004L556.807 77.7996C560.36 77.8693 563.647 77.522 566.653 76.7347L565.64 72.8653ZM556.87 73.8001C551.426 73.7361 546.59 72.7767 542.331 70.9603L540.762 74.6397C545.569 76.6899 550.933 77.7306 556.823 77.7999L556.87 73.8001ZM542.341 70.9646C538.108 69.1326 534.538 66.6522 531.604 63.5302L528.689 66.2698C532.021 69.8145 536.051 72.6008 540.752 74.6354L542.341 70.9646ZM531.617 63.5446C528.65 60.3253 526.347 56.6667 524.703 52.5572L520.99 54.0428C522.812 58.5999 525.376 62.6747 528.676 66.2554L531.617 63.5446ZM524.717 52.5915C523.14 48.4288 522.346 44.0032 522.346 39.3H518.346C518.346 44.4635 519.22 49.3712 520.976 54.0085L524.717 52.5915ZM522.346 39.3C522.346 34.0468 523.179 29.2926 524.815 25.0143L521.078 23.5857C519.248 28.3741 518.346 33.6198 518.346 39.3H522.346ZM524.818 25.0052C526.463 20.639 528.793 16.8684 531.803 13.6707L528.89 10.9293C525.5 14.5316 522.896 18.761 521.075 23.5948L524.818 25.0052ZM531.789 13.6856C534.87 10.4781 538.449 7.99807 542.538 6.23682L540.955 2.56317C536.377 4.53526 532.356 7.32192 528.904 10.9143L531.789 13.6856ZM542.528 6.24116C546.659 4.48822 551.191 3.6 556.146 3.6V-0.400002C550.702 -0.400002 545.633 0.578436 540.965 2.55883L542.528 6.24116ZM556.146 3.6C560.435 3.6 564.25 4.17616 567.614 5.29737L568.879 1.50263C565.043 0.223837 560.791 -0.400002 556.146 -0.400002V3.6ZM567.614 5.29737C571.097 6.45844 573.968 7.79224 576.258 9.27792L578.435 5.92208C575.792 4.20775 572.596 2.74156 568.879 1.50263L567.614 5.29737ZM575.503 6.82553L571.303 16.8255L574.99 18.3745L579.19 8.37446L575.503 6.82553ZM574.282 15.9536C572.205 14.5212 569.675 13.1925 566.719 11.9551L565.174 15.6449C567.952 16.8075 570.221 18.0121 572.011 19.2464L574.282 15.9536ZM566.771 11.9778C563.681 10.5798 560.261 9.9 556.547 9.9V13.9C559.765 13.9 562.612 14.4869 565.122 15.6222L566.771 11.9778ZM556.547 9.9C552.862 9.9 549.346 10.6605 546.016 12.1806L547.677 15.8194C550.481 14.5394 553.431 13.9 556.547 13.9V9.9ZM546.034 12.1724C542.785 13.6167 539.902 15.6737 537.394 18.3256L540.299 21.0744C542.458 18.7929 544.908 17.05 547.659 15.8276L546.034 12.1724ZM537.392 18.3267C534.945 20.9183 533.015 23.9648 531.595 27.4442L535.298 28.9558C536.545 25.9019 538.215 23.2817 540.301 21.0732L537.392 18.3267ZM531.6 27.4308C530.156 30.897 529.446 34.6615 529.446 38.7H533.446C533.446 35.1385 534.07 31.903 535.293 28.9692L531.6 27.4308ZM529.446 38.7C529.446 42.776 530.08 46.5789 531.369 50.0896L535.124 48.7104C534.013 45.6877 533.446 42.3574 533.446 38.7H529.446ZM531.369 50.0896C532.653 53.584 534.484 56.6463 536.872 59.2514L539.821 56.5486C537.809 54.3537 536.24 51.7493 535.124 48.7104L531.369 50.0896ZM536.892 59.2732C539.354 61.8798 542.285 63.9026 545.663 65.3403L547.23 61.6597C544.341 60.4307 541.872 58.7202 539.801 56.5267L536.892 59.2732ZM545.663 65.3403C549.08 66.7941 552.885 67.5 557.047 67.5V63.5C553.341 63.5 550.08 62.8726 547.23 61.6597L545.663 65.3403ZM557.047 67.5C560.978 67.5 564.509 66.9036 567.597 65.6539L566.096 61.9461C563.583 62.9631 560.581 63.5 557.047 63.5V67.5ZM567.582 65.6599C570.581 64.4743 573.108 63.0813 575.11 61.4505L572.583 58.3495C570.985 59.652 568.846 60.8591 566.111 61.9401L567.582 65.6599ZM572.036 60.7489L576.536 70.3489L580.157 68.6511L575.657 59.0511L572.036 60.7489ZM680.578 2.4H682.578V0.399999H680.578V2.4ZM680.578 75V77H682.578V75H680.578ZM669.878 75H667.878V77H669.878V75ZM669.878 43.7H671.878V41.7H669.878V43.7ZM633.078 43.7V41.7H631.078V43.7H633.078ZM633.078 75V77H635.078V75H633.078ZM622.378 75H620.378V77H622.378V75ZM622.378 2.4V0.399999H620.378V2.4H622.378ZM633.078 2.4H635.078V0.399999H633.078V2.4ZM633.078 33.5H631.078V35.5H633.078V33.5ZM669.878 33.5V35.5H671.878V33.5H669.878ZM669.878 2.4V0.399999H667.878V2.4H669.878ZM678.578 2.4V75H682.578V2.4H678.578ZM680.578 73H669.878V77H680.578V73ZM671.878 75V43.7H667.878V75H671.878ZM669.878 41.7H633.078V45.7H669.878V41.7ZM631.078 43.7V75H635.078V43.7H631.078ZM633.078 73H622.378V77H633.078V73ZM624.378 75V2.4H620.378V75H624.378ZM622.378 4.4H633.078V0.399999H622.378V4.4ZM631.078 2.4V33.5H635.078V2.4H631.078ZM633.078 35.5H669.878V31.5H633.078V35.5ZM671.878 33.5V2.4H667.878V33.5H671.878ZM669.878 4.4H680.578V0.399999H669.878V4.4ZM728.991 2.4V0.399999H726.991V2.4H728.991ZM739.691 2.4H741.691V0.399999H739.691V2.4ZM739.691 75V77H741.691V75H739.691ZM728.991 75H726.991V77H728.991V75ZM728.991 4.4H739.691V0.399999H728.991V4.4ZM737.691 2.4V75H741.691V2.4H737.691ZM739.691 73H728.991V77H739.691V73ZM730.991 75V2.4H726.991V75H730.991Z" fill="#9ED0E0" mask="url(#path-1-outside-1_652_926)"/>
</svg>
