<svg width="32" height="30" viewBox="0 0 32 30" fill="none" xmlns="http://www.w3.org/2000/svg">
<path d="M28.2305 8.06816H24.4942C25.0289 7.29051 25.3261 6.37432 25.3498 5.43092C25.3711 4.71224 25.2453 3.99679 24.98 3.32852C24.7148 2.66025 24.3157 2.05327 23.8073 1.54486C23.2988 1.03646 22.6919 0.637362 22.0236 0.372097C21.3553 0.106831 20.6399 -0.0190041 19.9212 0.00232052C19.2574 0.0164869 18.6037 0.167742 18.0011 0.446589C17.3986 0.725435 16.8602 1.12585 16.4198 1.62269C16.0949 1.99325 15.8056 2.3935 15.5556 2.81816C15.3055 2.3935 15.0162 1.99325 14.6914 1.62269C14.2509 1.12585 13.7125 0.725435 13.11 0.446589C12.5074 0.167742 11.8537 0.0164869 11.1899 0.00232052C10.4712 -0.0190041 9.75579 0.106831 9.08752 0.372097C8.41925 0.637362 7.81226 1.03646 7.30386 1.54486C6.79545 2.05327 6.39636 2.66025 6.13109 3.32852C5.86583 3.99679 5.73999 4.71224 5.76132 5.43092C5.78503 6.37432 6.08225 7.29051 6.61687 8.06816H2.88066C2.11666 8.06816 1.38395 8.37166 0.843725 8.91189C0.303497 9.45212 6.00492e-08 10.1848 6.00492e-08 10.9488V15.5579C-0.000135478 16.222 0.229176 16.8657 0.649124 17.3801C1.06907 17.8946 1.65386 18.2481 2.30453 18.3809V27.0805C2.30453 27.8445 2.60802 28.5772 3.14825 29.1174C3.68848 29.6577 4.42119 29.9612 5.18519 29.9612H25.9259C26.6899 29.9612 27.4226 29.6577 27.9629 29.1174C28.5031 28.5772 28.8066 27.8445 28.8066 27.0805V18.3809C29.4572 18.2481 30.042 17.8946 30.462 17.3801C30.8819 16.8657 31.1112 16.222 31.1111 15.5579V10.9488C31.1111 10.1848 30.8076 9.45212 30.2674 8.91189C29.7272 8.37166 28.9945 8.06816 28.2305 8.06816ZM27.6543 14.9817H17.284V11.525H27.6543V14.9817ZM19.0123 3.91569C19.1398 3.77419 19.2952 3.66058 19.4687 3.582C19.6422 3.50343 19.8301 3.46159 20.0206 3.45911H20.071C20.3147 3.45842 20.5561 3.50676 20.7808 3.60125C21.0055 3.69575 21.2089 3.83446 21.3789 4.00915C21.5488 4.18384 21.682 4.39093 21.7703 4.61811C21.8586 4.84528 21.9003 5.08791 21.893 5.33154C21.8905 5.52199 21.8487 5.70988 21.7701 5.88338C21.6915 6.05689 21.5779 6.21228 21.4364 6.33977C20.4426 7.22125 18.8078 7.67351 17.4568 7.88956C17.6728 6.5443 18.1251 4.90952 19.0123 3.91569ZM9.75103 3.99203C10.0929 3.65381 10.5534 3.46257 11.0344 3.45911H11.0905C11.281 3.46159 11.4689 3.50343 11.6424 3.582C11.8159 3.66058 11.9713 3.77419 12.0988 3.91569C12.9802 4.90952 13.4325 6.54286 13.6471 7.89244C12.3076 7.67495 10.6584 7.22269 9.67469 6.33977C9.53318 6.21228 9.41957 6.05689 9.341 5.88338C9.26243 5.70988 9.22059 5.52199 9.21811 5.33154C9.21174 5.08383 9.25568 4.8374 9.34728 4.60717C9.43888 4.37693 9.57623 4.16766 9.75103 3.99203ZM3.45679 11.525H13.8272V14.9817H3.45679V11.525ZM5.76132 18.4385H13.8272V26.5044H5.76132V18.4385ZM17.284 26.5044V18.4385H25.3498V26.5044H17.284Z" fill="#9ED0E0"/>
</svg>
